<svg width="194" height="94" viewBox="0 0 194 94" fill="none" xmlns="http://www.w3.org/2000/svg">
<g filter="url(#filter0_d_45_778)">
<rect x="2" width="190" height="90" rx="4" fill="#F7F8F3" fill-opacity="0.4" shape-rendering="crispEdges"/>
<rect x="2.5" y="0.5" width="189" height="89" rx="3.5" stroke="#ADDCCA" stroke-opacity="0.4" shape-rendering="crispEdges"/>
</g>
<g filter="url(#filter1_d_45_778)">
<rect x="2" width="190" height="90" rx="4" fill="#F7F8F3" fill-opacity="0.4" shape-rendering="crispEdges"/>
<rect x="2.5" y="0.5" width="189" height="89" rx="3.5" stroke="#ADDCCA" stroke-opacity="0.4" shape-rendering="crispEdges"/>
</g>
<rect x="11" y="9" width="10" height="4" fill="#3EBDC6" fill-opacity="0.4"/>
<path d="M28.09 13.89H30.39V15H26.69V8.02H28.09V13.89ZM33.7398 15.09C33.2065 15.09 32.7265 14.9733 32.2998 14.74C31.8732 14.5 31.5365 14.1633 31.2898 13.73C31.0498 13.2967 30.9298 12.7967 30.9298 12.23C30.9298 11.6633 31.0532 11.1633 31.2998 10.73C31.5532 10.2967 31.8965 9.96333 32.3298 9.73C32.7632 9.49 33.2465 9.37 33.7798 9.37C34.3132 9.37 34.7965 9.49 35.2298 9.73C35.6632 9.96333 36.0032 10.2967 36.2498 10.73C36.5032 11.1633 36.6298 11.6633 36.6298 12.23C36.6298 12.7967 36.4998 13.2967 36.2398 13.73C35.9865 14.1633 35.6398 14.5 35.1998 14.74C34.7665 14.9733 34.2798 15.09 33.7398 15.09ZM33.7398 13.87C33.9932 13.87 34.2298 13.81 34.4498 13.69C34.6765 13.5633 34.8565 13.3767 34.9898 13.13C35.1232 12.8833 35.1898 12.5833 35.1898 12.23C35.1898 11.7033 35.0498 11.3 34.7698 11.02C34.4965 10.7333 34.1598 10.59 33.7598 10.59C33.3598 10.59 33.0232 10.7333 32.7498 11.02C32.4832 11.3 32.3498 11.7033 32.3498 12.23C32.3498 12.7567 32.4798 13.1633 32.7398 13.45C33.0065 13.73 33.3398 13.87 33.7398 13.87ZM39.0568 10.32C39.2368 10.0267 39.4701 9.79667 39.7568 9.63C40.0501 9.46333 40.3835 9.38 40.7568 9.38V10.85H40.3868C39.9468 10.85 39.6135 10.9533 39.3868 11.16C39.1668 11.3667 39.0568 11.7267 39.0568 12.24V15H37.6568V9.46H39.0568V10.32ZM46.8498 12.11C46.8498 12.31 46.8364 12.49 46.8098 12.65H42.7598C42.7931 13.05 42.9331 13.3633 43.1798 13.59C43.4264 13.8167 43.7298 13.93 44.0898 13.93C44.6098 13.93 44.9798 13.7067 45.1998 13.26H46.7098C46.5498 13.7933 46.2431 14.2333 45.7898 14.58C45.3364 14.92 44.7798 15.09 44.1198 15.09C43.5864 15.09 43.1064 14.9733 42.6798 14.74C42.2598 14.5 41.9298 14.1633 41.6898 13.73C41.4564 13.2967 41.3398 12.7967 41.3398 12.23C41.3398 11.6567 41.4564 11.1533 41.6898 10.72C41.9231 10.2867 42.2498 9.95333 42.6698 9.72C43.0898 9.48667 43.5731 9.37 44.1198 9.37C44.6464 9.37 45.1164 9.48333 45.5298 9.71C45.9498 9.93667 46.2731 10.26 46.4998 10.68C46.7331 11.0933 46.8498 11.57 46.8498 12.11ZM45.3998 11.71C45.3931 11.35 45.2631 11.0633 45.0098 10.85C44.7564 10.63 44.4464 10.52 44.0798 10.52C43.7331 10.52 43.4398 10.6267 43.1998 10.84C42.9664 11.0467 42.8231 11.3367 42.7698 11.71H45.3998ZM54.7516 9.38C55.4316 9.38 55.9783 9.59 56.3916 10.01C56.8116 10.4233 57.0216 11.0033 57.0216 11.75V15H55.6216V11.94C55.6216 11.5067 55.5116 11.1767 55.2916 10.95C55.0716 10.7167 54.7716 10.6 54.3916 10.6C54.0116 10.6 53.7083 10.7167 53.4816 10.95C53.2616 11.1767 53.1516 11.5067 53.1516 11.94V15H51.7516V11.94C51.7516 11.5067 51.6416 11.1767 51.4216 10.95C51.2016 10.7167 50.9016 10.6 50.5216 10.6C50.135 10.6 49.8283 10.7167 49.6016 10.95C49.3816 11.1767 49.2716 11.5067 49.2716 11.94V15H47.8716V9.46H49.2716V10.13C49.4516 9.89667 49.6816 9.71333 49.9616 9.58C50.2483 9.44667 50.5616 9.38 50.9016 9.38C51.335 9.38 51.7216 9.47333 52.0616 9.66C52.4016 9.84 52.665 10.1 52.8516 10.44C53.0316 10.12 53.2916 9.86333 53.6316 9.67C53.9783 9.47667 54.3516 9.38 54.7516 9.38ZM62.133 8.02V15H60.733V8.02H62.133ZM64.9162 10.26C65.0962 10.0067 65.3428 9.79667 65.6562 9.63C65.9762 9.45667 66.3395 9.37 66.7462 9.37C67.2195 9.37 67.6462 9.48667 68.0262 9.72C68.4128 9.95333 68.7162 10.2867 68.9362 10.72C69.1628 11.1467 69.2762 11.6433 69.2762 12.21C69.2762 12.7767 69.1628 13.28 68.9362 13.72C68.7162 14.1533 68.4128 14.49 68.0262 14.73C67.6462 14.97 67.2195 15.09 66.7462 15.09C66.3395 15.09 65.9795 15.0067 65.6662 14.84C65.3595 14.6733 65.1095 14.4633 64.9162 14.21V17.64H63.5162V9.46H64.9162V10.26ZM67.8462 12.21C67.8462 11.8767 67.7762 11.59 67.6362 11.35C67.5028 11.1033 67.3228 10.9167 67.0962 10.79C66.8762 10.6633 66.6362 10.6 66.3762 10.6C66.1228 10.6 65.8828 10.6667 65.6562 10.8C65.4362 10.9267 65.2562 11.1133 65.1162 11.36C64.9828 11.6067 64.9162 11.8967 64.9162 12.23C64.9162 12.5633 64.9828 12.8533 65.1162 13.1C65.2562 13.3467 65.4362 13.5367 65.6562 13.67C65.8828 13.7967 66.1228 13.86 66.3762 13.86C66.6362 13.86 66.8762 13.7933 67.0962 13.66C67.3228 13.5267 67.5028 13.3367 67.6362 13.09C67.7762 12.8433 67.8462 12.55 67.8462 12.21ZM72.4135 15.09C71.9602 15.09 71.5535 15.01 71.1935 14.85C70.8335 14.6833 70.5468 14.46 70.3335 14.18C70.1268 13.9 70.0135 13.59 69.9935 13.25H71.4035C71.4302 13.4633 71.5335 13.64 71.7135 13.78C71.9002 13.92 72.1302 13.99 72.4035 13.99C72.6702 13.99 72.8768 13.9367 73.0235 13.83C73.1768 13.7233 73.2535 13.5867 73.2535 13.42C73.2535 13.24 73.1602 13.1067 72.9735 13.02C72.7935 12.9267 72.5035 12.8267 72.1035 12.72C71.6902 12.62 71.3502 12.5167 71.0835 12.41C70.8235 12.3033 70.5968 12.14 70.4035 11.92C70.2168 11.7 70.1235 11.4033 70.1235 11.03C70.1235 10.7233 70.2102 10.4433 70.3835 10.19C70.5635 9.93667 70.8168 9.73667 71.1435 9.59C71.4768 9.44333 71.8668 9.37 72.3135 9.37C72.9735 9.37 73.5002 9.53667 73.8935 9.87C74.2868 10.1967 74.5035 10.64 74.5435 11.2H73.2035C73.1835 10.98 73.0902 10.8067 72.9235 10.68C72.7635 10.5467 72.5468 10.48 72.2735 10.48C72.0202 10.48 71.8235 10.5267 71.6835 10.62C71.5502 10.7133 71.4835 10.8433 71.4835 11.01C71.4835 11.1967 71.5768 11.34 71.7635 11.44C71.9502 11.5333 72.2402 11.63 72.6335 11.73C73.0335 11.83 73.3635 11.9333 73.6235 12.04C73.8835 12.1467 74.1068 12.3133 74.2935 12.54C74.4868 12.76 74.5868 13.0533 74.5935 13.42C74.5935 13.74 74.5035 14.0267 74.3235 14.28C74.1502 14.5333 73.8968 14.7333 73.5635 14.88C73.2368 15.02 72.8535 15.09 72.4135 15.09ZM80.9727 9.46V15H79.5627V14.3C79.3827 14.54 79.1461 14.73 78.8527 14.87C78.5661 15.0033 78.2527 15.07 77.9127 15.07C77.4794 15.07 77.0961 14.98 76.7627 14.8C76.4294 14.6133 76.1661 14.3433 75.9727 13.99C75.7861 13.63 75.6927 13.2033 75.6927 12.71V9.46H77.0927V12.51C77.0927 12.95 77.2027 13.29 77.4227 13.53C77.6427 13.7633 77.9427 13.88 78.3227 13.88C78.7094 13.88 79.0127 13.7633 79.2327 13.53C79.4527 13.29 79.5627 12.95 79.5627 12.51V9.46H80.9727ZM89.2341 9.38C89.9141 9.38 90.4607 9.59 90.8741 10.01C91.2941 10.4233 91.5041 11.0033 91.5041 11.75V15H90.1041V11.94C90.1041 11.5067 89.9941 11.1767 89.7741 10.95C89.5541 10.7167 89.2541 10.6 88.8741 10.6C88.4941 10.6 88.1907 10.7167 87.9641 10.95C87.7441 11.1767 87.6341 11.5067 87.6341 11.94V15H86.2341V11.94C86.2341 11.5067 86.1241 11.1767 85.9041 10.95C85.6841 10.7167 85.3841 10.6 85.0041 10.6C84.6174 10.6 84.3107 10.7167 84.0841 10.95C83.8641 11.1767 83.7541 11.5067 83.7541 11.94V15H82.3541V9.46H83.7541V10.13C83.9341 9.89667 84.1641 9.71333 84.4441 9.58C84.7307 9.44667 85.0441 9.38 85.3841 9.38C85.8174 9.38 86.2041 9.47333 86.5441 9.66C86.8841 9.84 87.1474 10.1 87.3341 10.44C87.5141 10.12 87.7741 9.86333 88.1141 9.67C88.4607 9.47667 88.8341 9.38 89.2341 9.38Z" fill="#111111" fill-opacity="0.4"/>
<path d="M28.09 33.89H30.39V35H26.69V28.02H28.09V33.89ZM33.7398 35.09C33.2065 35.09 32.7265 34.9733 32.2998 34.74C31.8732 34.5 31.5365 34.1633 31.2898 33.73C31.0498 33.2967 30.9298 32.7967 30.9298 32.23C30.9298 31.6633 31.0532 31.1633 31.2998 30.73C31.5532 30.2967 31.8965 29.9633 32.3298 29.73C32.7632 29.49 33.2465 29.37 33.7798 29.37C34.3132 29.37 34.7965 29.49 35.2298 29.73C35.6632 29.9633 36.0032 30.2967 36.2498 30.73C36.5032 31.1633 36.6298 31.6633 36.6298 32.23C36.6298 32.7967 36.4998 33.2967 36.2398 33.73C35.9865 34.1633 35.6398 34.5 35.1998 34.74C34.7665 34.9733 34.2798 35.09 33.7398 35.09ZM33.7398 33.87C33.9932 33.87 34.2298 33.81 34.4498 33.69C34.6765 33.5633 34.8565 33.3767 34.9898 33.13C35.1232 32.8833 35.1898 32.5833 35.1898 32.23C35.1898 31.7033 35.0498 31.3 34.7698 31.02C34.4965 30.7333 34.1598 30.59 33.7598 30.59C33.3598 30.59 33.0232 30.7333 32.7498 31.02C32.4832 31.3 32.3498 31.7033 32.3498 32.23C32.3498 32.7567 32.4798 33.1633 32.7398 33.45C33.0065 33.73 33.3398 33.87 33.7398 33.87ZM39.0568 30.32C39.2368 30.0267 39.4701 29.7967 39.7568 29.63C40.0501 29.4633 40.3835 29.38 40.7568 29.38V30.85H40.3868C39.9468 30.85 39.6135 30.9533 39.3868 31.16C39.1668 31.3667 39.0568 31.7267 39.0568 32.24V35H37.6568V29.46H39.0568V30.32ZM46.8498 32.11C46.8498 32.31 46.8364 32.49 46.8098 32.65H42.7598C42.7931 33.05 42.9331 33.3633 43.1798 33.59C43.4264 33.8167 43.7298 33.93 44.0898 33.93C44.6098 33.93 44.9798 33.7067 45.1998 33.26H46.7098C46.5498 33.7933 46.2431 34.2333 45.7898 34.58C45.3364 34.92 44.7798 35.09 44.1198 35.09C43.5864 35.09 43.1064 34.9733 42.6798 34.74C42.2598 34.5 41.9298 34.1633 41.6898 33.73C41.4564 33.2967 41.3398 32.7967 41.3398 32.23C41.3398 31.6567 41.4564 31.1533 41.6898 30.72C41.9231 30.2867 42.2498 29.9533 42.6698 29.72C43.0898 29.4867 43.5731 29.37 44.1198 29.37C44.6464 29.37 45.1164 29.4833 45.5298 29.71C45.9498 29.9367 46.2731 30.26 46.4998 30.68C46.7331 31.0933 46.8498 31.57 46.8498 32.11ZM45.3998 31.71C45.3931 31.35 45.2631 31.0633 45.0098 30.85C44.7564 30.63 44.4464 30.52 44.0798 30.52C43.7331 30.52 43.4398 30.6267 43.1998 30.84C42.9664 31.0467 42.8231 31.3367 42.7698 31.71H45.3998ZM54.7516 29.38C55.4316 29.38 55.9783 29.59 56.3916 30.01C56.8116 30.4233 57.0216 31.0033 57.0216 31.75V35H55.6216V31.94C55.6216 31.5067 55.5116 31.1767 55.2916 30.95C55.0716 30.7167 54.7716 30.6 54.3916 30.6C54.0116 30.6 53.7083 30.7167 53.4816 30.95C53.2616 31.1767 53.1516 31.5067 53.1516 31.94V35H51.7516V31.94C51.7516 31.5067 51.6416 31.1767 51.4216 30.95C51.2016 30.7167 50.9016 30.6 50.5216 30.6C50.135 30.6 49.8283 30.7167 49.6016 30.95C49.3816 31.1767 49.2716 31.5067 49.2716 31.94V35H47.8716V29.46H49.2716V30.13C49.4516 29.8967 49.6816 29.7133 49.9616 29.58C50.2483 29.4467 50.5616 29.38 50.9016 29.38C51.335 29.38 51.7216 29.4733 52.0616 29.66C52.4016 29.84 52.665 30.1 52.8516 30.44C53.0316 30.12 53.2916 29.8633 53.6316 29.67C53.9783 29.4767 54.3516 29.38 54.7516 29.38Z" fill="#111111" fill-opacity="0.4"/>
<path d="M26.8807 54V46.7273H27.7614V53.2188H31.142V54H26.8807ZM34.608 54.1136C34.1155 54.1136 33.6835 53.9964 33.3118 53.7621C32.9425 53.5277 32.6536 53.1998 32.4453 52.7784C32.2393 52.357 32.1364 51.8646 32.1364 51.3011C32.1364 50.733 32.2393 50.237 32.4453 49.8132C32.6536 49.3894 32.9425 49.0604 33.3118 48.826C33.6835 48.5916 34.1155 48.4744 34.608 48.4744C35.1004 48.4744 35.5313 48.5916 35.9006 48.826C36.2723 49.0604 36.5611 49.3894 36.767 49.8132C36.9754 50.237 37.0795 50.733 37.0795 51.3011C37.0795 51.8646 36.9754 52.357 36.767 52.7784C36.5611 53.1998 36.2723 53.5277 35.9006 53.7621C35.5313 53.9964 35.1004 54.1136 34.608 54.1136ZM34.608 53.3608C34.982 53.3608 35.2898 53.2649 35.5312 53.0732C35.7727 52.8814 35.9515 52.6293 36.0675 52.3168C36.1835 52.0043 36.2415 51.6657 36.2415 51.3011C36.2415 50.9366 36.1835 50.5968 36.0675 50.282C35.9515 49.9671 35.7727 49.7126 35.5312 49.5185C35.2898 49.3243 34.982 49.2273 34.608 49.2273C34.2339 49.2273 33.9261 49.3243 33.6847 49.5185C33.4432 49.7126 33.2644 49.9671 33.1484 50.282C33.0324 50.5968 32.9744 50.9366 32.9744 51.3011C32.9744 51.6657 33.0324 52.0043 33.1484 52.3168C33.2644 52.6293 33.4432 52.8814 33.6847 53.0732C33.9261 53.2649 34.2339 53.3608 34.608 53.3608ZM38.3588 54V48.5455H39.1685V49.3693H39.2253C39.3248 49.0994 39.5047 48.8804 39.7651 48.7124C40.0255 48.5443 40.3191 48.4602 40.6458 48.4602C40.7073 48.4602 40.7843 48.4614 40.8766 48.4638C40.9689 48.4661 41.0388 48.4697 41.0861 48.4744V49.3267C41.0577 49.3196 40.9926 49.3089 40.8908 49.2947C40.7914 49.2782 40.686 49.2699 40.5748 49.2699C40.3096 49.2699 40.0729 49.3255 39.8645 49.4368C39.6586 49.5457 39.4952 49.6972 39.3745 49.8913C39.2561 50.0831 39.1969 50.3021 39.1969 50.5483V54H38.3588ZM44.2005 54.1136C43.6749 54.1136 43.2215 53.9976 42.8404 53.7656C42.4616 53.5312 42.1692 53.2045 41.9632 52.7855C41.7596 52.3641 41.6578 51.8741 41.6578 51.3153C41.6578 50.7566 41.7596 50.2642 41.9632 49.8381C42.1692 49.4096 42.4557 49.0758 42.8226 48.8366C43.1919 48.5952 43.6228 48.4744 44.1152 48.4744C44.3993 48.4744 44.6799 48.5218 44.9569 48.6165C45.2338 48.7112 45.486 48.8651 45.7132 49.0781C45.9405 49.2888 46.1216 49.5682 46.2566 49.9162C46.3915 50.2642 46.459 50.6927 46.459 51.2017V51.5568H42.2544V50.8324H45.6067C45.6067 50.5246 45.5452 50.25 45.4221 50.0085C45.3013 49.767 45.1285 49.5765 44.9036 49.4368C44.681 49.2971 44.4183 49.2273 44.1152 49.2273C43.7814 49.2273 43.4926 49.3101 43.2488 49.4759C43.0073 49.6392 42.8214 49.8523 42.6912 50.1151C42.561 50.3778 42.4959 50.6596 42.4959 50.9602V51.4432C42.4959 51.8551 42.5669 52.2043 42.709 52.4908C42.8534 52.7749 43.0534 52.9915 43.3091 53.1406C43.5648 53.2874 43.8619 53.3608 44.2005 53.3608C44.4206 53.3608 44.6195 53.33 44.7971 53.2685C44.977 53.2045 45.132 53.1098 45.2623 52.9844C45.3925 52.8565 45.4931 52.6979 45.5641 52.5085L46.3738 52.7358C46.2885 53.0104 46.1453 53.2519 45.9441 53.4602C45.7428 53.6662 45.4943 53.8272 45.1983 53.9432C44.9024 54.0568 44.5698 54.1136 44.2005 54.1136ZM47.7338 54V48.5455H48.5435V49.3977H48.6145C48.7282 49.1065 48.9116 48.8804 49.165 48.7195C49.4183 48.5561 49.7225 48.4744 50.0776 48.4744C50.4374 48.4744 50.7369 48.5561 50.976 48.7195C51.2175 48.8804 51.4057 49.1065 51.5407 49.3977H51.5975C51.7372 49.116 51.9467 48.8923 52.226 48.7266C52.5054 48.5585 52.8404 48.4744 53.231 48.4744C53.7187 48.4744 54.1176 48.6271 54.4277 48.9325C54.7379 49.2356 54.8929 49.7079 54.8929 50.3494V54H54.0549V50.3494C54.0549 49.947 53.9448 49.6593 53.7246 49.4865C53.5044 49.3137 53.2452 49.2273 52.9469 49.2273C52.5634 49.2273 52.2663 49.3433 52.0556 49.5753C51.8449 49.8049 51.7395 50.0961 51.7395 50.4489V54H50.8873V50.2642C50.8873 49.9541 50.7866 49.7043 50.5854 49.5149C50.3842 49.3232 50.1249 49.2273 49.8077 49.2273C49.5899 49.2273 49.3863 49.2853 49.1969 49.4013C49.0099 49.5173 48.8584 49.6783 48.7424 49.8842C48.6287 50.0878 48.5719 50.3234 48.5719 50.5909V54H47.7338ZM59.2377 54V48.5455H60.0758V54H59.2377ZM59.6639 47.6364C59.5005 47.6364 59.3597 47.5807 59.2413 47.4695C59.1253 47.3582 59.0673 47.2244 59.0673 47.0682C59.0673 46.9119 59.1253 46.7782 59.2413 46.6669C59.3597 46.5556 59.5005 46.5 59.6639 46.5C59.8272 46.5 59.9669 46.5556 60.0829 46.6669C60.2013 46.7782 60.2605 46.9119 60.2605 47.0682C60.2605 47.2244 60.2013 47.3582 60.0829 47.4695C59.9669 47.5807 59.8272 47.6364 59.6639 47.6364ZM61.6108 56.0455V48.5455H62.4205V49.4119H62.5199C62.5814 49.3172 62.6667 49.1965 62.7756 49.0497C62.8868 48.9006 63.0455 48.768 63.2514 48.652C63.4598 48.5336 63.7415 48.4744 64.0966 48.4744C64.5559 48.4744 64.9607 48.5893 65.3111 48.8189C65.6615 49.0485 65.9349 49.3741 66.1314 49.7955C66.3279 50.2169 66.4261 50.714 66.4261 51.2869C66.4261 51.8646 66.3279 52.3653 66.1314 52.7891C65.9349 53.2105 65.6626 53.5372 65.3146 53.7692C64.9666 53.9988 64.5653 54.1136 64.1108 54.1136C63.7604 54.1136 63.4799 54.0556 63.2692 53.9396C63.0585 53.8213 62.8963 53.6875 62.7827 53.5384C62.669 53.3868 62.5814 53.2614 62.5199 53.1619H62.4489V56.0455H61.6108ZM62.4347 51.2727C62.4347 51.6847 62.495 52.0481 62.6158 52.3629C62.7365 52.6754 62.9129 52.9205 63.1449 53.098C63.3769 53.2732 63.661 53.3608 63.9972 53.3608C64.3475 53.3608 64.6399 53.2685 64.8743 53.0838C65.111 52.8968 65.2886 52.6458 65.407 52.331C65.5277 52.0137 65.5881 51.661 65.5881 51.2727C65.5881 50.8892 65.5289 50.5436 65.4105 50.2358C65.2945 49.9257 65.1181 49.6806 64.8814 49.5007C64.647 49.3184 64.3523 49.2273 63.9972 49.2273C63.6563 49.2273 63.3698 49.3137 63.1378 49.4865C62.9058 49.657 62.7306 49.8961 62.6122 50.2038C62.4938 50.5092 62.4347 50.8655 62.4347 51.2727ZM71.5682 49.767L70.8153 49.9801C70.768 49.8546 70.6982 49.7327 70.6058 49.6143C70.5159 49.4936 70.3928 49.3942 70.2365 49.3161C70.0803 49.2379 69.8802 49.1989 69.6364 49.1989C69.3026 49.1989 69.0244 49.2758 68.8018 49.4297C68.5817 49.5812 68.4716 49.7741 68.4716 50.0085C68.4716 50.2169 68.5473 50.3814 68.6989 50.5021C68.8504 50.6229 69.0871 50.7235 69.4091 50.804L70.2188 51.0028C70.7064 51.1212 71.0698 51.3023 71.3089 51.5462C71.5481 51.7876 71.6676 52.099 71.6676 52.4801C71.6676 52.7926 71.5777 53.072 71.3977 53.3182C71.2202 53.5644 70.9716 53.7585 70.652 53.9006C70.3324 54.0426 69.9607 54.1136 69.5369 54.1136C68.9806 54.1136 68.5201 53.9929 68.1555 53.7514C67.791 53.5099 67.5601 53.1572 67.4631 52.6932L68.2585 52.4943C68.3343 52.7879 68.4775 53.008 68.6882 53.1548C68.9013 53.3016 69.1795 53.375 69.5227 53.375C69.9134 53.375 70.2235 53.2921 70.4531 53.1264C70.6851 52.9583 70.8011 52.7571 70.8011 52.5227C70.8011 52.3333 70.7348 52.1747 70.6023 52.0469C70.4697 51.9167 70.2661 51.8196 69.9915 51.7557L69.0824 51.5426C68.5829 51.4242 68.2159 51.2408 67.9815 50.9922C67.7495 50.7412 67.6335 50.4276 67.6335 50.0511C67.6335 49.7434 67.7199 49.4711 67.8928 49.2344C68.0679 48.9976 68.3059 48.8118 68.6065 48.6768C68.9096 48.5419 69.2528 48.4744 69.6364 48.4744C70.1761 48.4744 70.5999 48.5928 70.9077 48.8295C71.2178 49.0663 71.438 49.3788 71.5682 49.767ZM76.3667 51.7699V48.5455H77.2047V54H76.3667V53.0767H76.3098C76.182 53.3537 75.9831 53.5893 75.7132 53.7834C75.4434 53.9751 75.1025 54.071 74.6905 54.071C74.3496 54.071 74.0466 53.9964 73.7814 53.8473C73.5163 53.6958 73.3079 53.4685 73.1564 53.1655C73.0049 52.8601 72.9292 52.4754 72.9292 52.0114V48.5455H73.7672V51.9545C73.7672 52.3523 73.8785 52.6695 74.101 52.9062C74.3259 53.143 74.6124 53.2614 74.9604 53.2614C75.1687 53.2614 75.3806 53.2081 75.5961 53.1016C75.8139 52.995 75.9962 52.8317 76.1429 52.6115C76.2921 52.3913 76.3667 52.1108 76.3667 51.7699ZM78.7397 54V48.5455H79.5494V49.3977H79.6204C79.734 49.1065 79.9175 48.8804 80.1708 48.7195C80.4241 48.5561 80.7283 48.4744 81.0835 48.4744C81.4433 48.4744 81.7428 48.5561 81.9819 48.7195C82.2234 48.8804 82.4116 49.1065 82.5465 49.3977H82.6033C82.743 49.116 82.9525 48.8923 83.2319 48.7266C83.5112 48.5585 83.8462 48.4744 84.2369 48.4744C84.7246 48.4744 85.1235 48.6271 85.4336 48.9325C85.7437 49.2356 85.8988 49.7079 85.8988 50.3494V54H85.0607V50.3494C85.0607 49.947 84.9506 49.6593 84.7305 49.4865C84.5103 49.3137 84.2511 49.2273 83.9528 49.2273C83.5692 49.2273 83.2721 49.3433 83.0614 49.5753C82.8507 49.8049 82.7454 50.0961 82.7454 50.4489V54H81.8931V50.2642C81.8931 49.9541 81.7925 49.7043 81.5913 49.5149C81.39 49.3232 81.1308 49.2273 80.8136 49.2273C80.5958 49.2273 80.3922 49.2853 80.2028 49.4013C80.0157 49.5173 79.8642 49.6783 79.7482 49.8842C79.6346 50.0878 79.5778 50.3234 79.5778 50.5909V54H78.7397ZM91.0817 46.7273V54H90.2436V46.7273H91.0817ZM94.8326 54.1136C94.3401 54.1136 93.9081 53.9964 93.5364 53.7621C93.1671 53.5277 92.8783 53.1998 92.6699 52.7784C92.464 52.357 92.361 51.8646 92.361 51.3011C92.361 50.733 92.464 50.237 92.6699 49.8132C92.8783 49.3894 93.1671 49.0604 93.5364 48.826C93.9081 48.5916 94.3401 48.4744 94.8326 48.4744C95.325 48.4744 95.7559 48.5916 96.1252 48.826C96.4969 49.0604 96.7857 49.3894 96.9917 49.8132C97.2 50.237 97.3042 50.733 97.3042 51.3011C97.3042 51.8646 97.2 52.357 96.9917 52.7784C96.7857 53.1998 96.4969 53.5277 96.1252 53.7621C95.7559 53.9964 95.325 54.1136 94.8326 54.1136ZM94.8326 53.3608C95.2066 53.3608 95.5144 53.2649 95.7559 53.0732C95.9973 52.8814 96.1761 52.6293 96.2921 52.3168C96.4081 52.0043 96.4661 51.6657 96.4661 51.3011C96.4661 50.9366 96.4081 50.5968 96.2921 50.282C96.1761 49.9671 95.9973 49.7126 95.7559 49.5185C95.5144 49.3243 95.2066 49.2273 94.8326 49.2273C94.4585 49.2273 94.1507 49.3243 93.9093 49.5185C93.6678 49.7126 93.4891 49.9671 93.373 50.282C93.257 50.5968 93.199 50.9366 93.199 51.3011C93.199 51.6657 93.257 52.0043 93.373 52.3168C93.4891 52.6293 93.6678 52.8814 93.9093 53.0732C94.1507 53.2649 94.4585 53.3608 94.8326 53.3608ZM98.5835 54V48.5455H99.3931V49.3693H99.4499C99.5494 49.0994 99.7293 48.8804 99.9897 48.7124C100.25 48.5443 100.544 48.4602 100.87 48.4602C100.932 48.4602 101.009 48.4614 101.101 48.4638C101.194 48.4661 101.263 48.4697 101.311 48.4744V49.3267C101.282 49.3196 101.217 49.3089 101.115 49.2947C101.016 49.2782 100.911 49.2699 100.799 49.2699C100.534 49.2699 100.297 49.3255 100.089 49.4368C99.8832 49.5457 99.7198 49.6972 99.5991 49.8913C99.4807 50.0831 99.4215 50.3021 99.4215 50.5483V54H98.5835ZM104.425 54.1136C103.9 54.1136 103.446 53.9976 103.065 53.7656C102.686 53.5312 102.394 53.2045 102.188 52.7855C101.984 52.3641 101.882 51.8741 101.882 51.3153C101.882 50.7566 101.984 50.2642 102.188 49.8381C102.394 49.4096 102.68 49.0758 103.047 48.8366C103.417 48.5952 103.847 48.4744 104.34 48.4744C104.624 48.4744 104.904 48.5218 105.181 48.6165C105.458 48.7112 105.711 48.8651 105.938 49.0781C106.165 49.2888 106.346 49.5682 106.481 49.9162C106.616 50.2642 106.684 50.6927 106.684 51.2017V51.5568H102.479V50.8324H105.831C105.831 50.5246 105.77 50.25 105.647 50.0085C105.526 49.767 105.353 49.5765 105.128 49.4368C104.906 49.2971 104.643 49.2273 104.34 49.2273C104.006 49.2273 103.717 49.3101 103.473 49.4759C103.232 49.6392 103.046 49.8523 102.916 50.1151C102.786 50.3778 102.721 50.6596 102.721 50.9602V51.4432C102.721 51.8551 102.792 52.2043 102.934 52.4908C103.078 52.7749 103.278 52.9915 103.534 53.1406C103.789 53.2874 104.087 53.3608 104.425 53.3608C104.645 53.3608 104.844 53.33 105.022 53.2685C105.202 53.2045 105.357 53.1098 105.487 52.9844C105.617 52.8565 105.718 52.6979 105.789 52.5085L106.598 52.7358C106.513 53.0104 106.37 53.2519 106.169 53.4602C105.967 53.6662 105.719 53.8272 105.423 53.9432C105.127 54.0568 104.794 54.1136 104.425 54.1136ZM107.958 54V48.5455H108.768V49.3977H108.839C108.953 49.1065 109.136 48.8804 109.39 48.7195C109.643 48.5561 109.947 48.4744 110.302 48.4744C110.662 48.4744 110.962 48.5561 111.201 48.7195C111.442 48.8804 111.63 49.1065 111.765 49.3977H111.822C111.962 49.116 112.171 48.8923 112.451 48.7266C112.73 48.5585 113.065 48.4744 113.456 48.4744C113.943 48.4744 114.342 48.6271 114.652 48.9325C114.962 49.2356 115.118 49.7079 115.118 50.3494V54H114.279V50.3494C114.279 49.947 114.169 49.6593 113.949 49.4865C113.729 49.3137 113.47 49.2273 113.172 49.2273C112.788 49.2273 112.491 49.3433 112.28 49.5753C112.069 49.8049 111.964 50.0961 111.964 50.4489V54H111.112V50.2642C111.112 49.9541 111.011 49.7043 110.81 49.5149C110.609 49.3232 110.35 49.2273 110.032 49.2273C109.815 49.2273 109.611 49.2853 109.422 49.4013C109.234 49.5173 109.083 49.6783 108.967 49.8842C108.853 50.0878 108.797 50.3234 108.797 50.5909V54H107.958ZM120.3 46.7273V54H119.462V46.7273H120.3ZM124.051 54.1136C123.559 54.1136 123.127 53.9964 122.755 53.7621C122.386 53.5277 122.097 53.1998 121.889 52.7784C121.683 52.357 121.58 51.8646 121.58 51.3011C121.58 50.733 121.683 50.237 121.889 49.8132C122.097 49.3894 122.386 49.0604 122.755 48.826C123.127 48.5916 123.559 48.4744 124.051 48.4744C124.544 48.4744 124.975 48.5916 125.344 48.826C125.716 49.0604 126.004 49.3894 126.21 49.8132C126.419 50.237 126.523 50.733 126.523 51.3011C126.523 51.8646 126.419 52.357 126.21 52.7784C126.004 53.1998 125.716 53.5277 125.344 53.7621C124.975 53.9964 124.544 54.1136 124.051 54.1136ZM124.051 53.3608C124.425 53.3608 124.733 53.2649 124.975 53.0732C125.216 52.8814 125.395 52.6293 125.511 52.3168C125.627 52.0043 125.685 51.6657 125.685 51.3011C125.685 50.9366 125.627 50.5968 125.511 50.282C125.395 49.9671 125.216 49.7126 124.975 49.5185C124.733 49.3243 124.425 49.2273 124.051 49.2273C123.677 49.2273 123.369 49.3243 123.128 49.5185C122.887 49.7126 122.708 49.9671 122.592 50.282C122.476 50.5968 122.418 50.9366 122.418 51.3011C122.418 51.6657 122.476 52.0043 122.592 52.3168C122.708 52.6293 122.887 52.8814 123.128 53.0732C123.369 53.2649 123.677 53.3608 124.051 53.3608ZM127.802 54V48.5455H128.612V49.3693H128.669C128.768 49.0994 128.948 48.8804 129.208 48.7124C129.469 48.5443 129.762 48.4602 130.089 48.4602C130.151 48.4602 130.228 48.4614 130.32 48.4638C130.412 48.4661 130.482 48.4697 130.529 48.4744V49.3267C130.501 49.3196 130.436 49.3089 130.334 49.2947C130.235 49.2782 130.129 49.2699 130.018 49.2699C129.753 49.2699 129.516 49.3255 129.308 49.4368C129.102 49.5457 128.939 49.6972 128.818 49.8913C128.699 50.0831 128.64 50.3021 128.64 50.5483V54H127.802ZM133.644 54.1136C133.118 54.1136 132.665 53.9976 132.284 53.7656C131.905 53.5312 131.613 53.2045 131.407 52.7855C131.203 52.3641 131.101 51.8741 131.101 51.3153C131.101 50.7566 131.203 50.2642 131.407 49.8381C131.613 49.4096 131.899 49.0758 132.266 48.8366C132.635 48.5952 133.066 48.4744 133.559 48.4744C133.843 48.4744 134.123 48.5218 134.4 48.6165C134.677 48.7112 134.929 48.8651 135.157 49.0781C135.384 49.2888 135.565 49.5682 135.7 49.9162C135.835 50.2642 135.902 50.6927 135.902 51.2017V51.5568H131.698V50.8324H135.05C135.05 50.5246 134.989 50.25 134.865 50.0085C134.745 49.767 134.572 49.5765 134.347 49.4368C134.124 49.2971 133.862 49.2273 133.559 49.2273C133.225 49.2273 132.936 49.3101 132.692 49.4759C132.451 49.6392 132.265 49.8523 132.135 50.1151C132.004 50.3778 131.939 50.6596 131.939 50.9602V51.4432C131.939 51.8551 132.01 52.2043 132.152 52.4908C132.297 52.7749 132.497 52.9915 132.752 53.1406C133.008 53.2874 133.305 53.3608 133.644 53.3608C133.864 53.3608 134.063 53.33 134.24 53.2685C134.42 53.2045 134.575 53.1098 134.706 52.9844C134.836 52.8565 134.936 52.6979 135.007 52.5085L135.817 52.7358C135.732 53.0104 135.589 53.2519 135.387 53.4602C135.186 53.6662 134.938 53.8272 134.642 53.9432C134.346 54.0568 134.013 54.1136 133.644 54.1136ZM137.177 54V48.5455H137.987V49.3977H138.058C138.172 49.1065 138.355 48.8804 138.608 48.7195C138.862 48.5561 139.166 48.4744 139.521 48.4744C139.881 48.4744 140.18 48.5561 140.419 48.7195C140.661 48.8804 140.849 49.1065 140.984 49.3977H141.041C141.181 49.116 141.39 48.8923 141.669 48.7266C141.949 48.5585 142.284 48.4744 142.674 48.4744C143.162 48.4744 143.561 48.6271 143.871 48.9325C144.181 49.2356 144.336 49.7079 144.336 50.3494V54H143.498V50.3494C143.498 49.947 143.388 49.6593 143.168 49.4865C142.948 49.3137 142.689 49.2273 142.39 49.2273C142.007 49.2273 141.71 49.3433 141.499 49.5753C141.288 49.8049 141.183 50.0961 141.183 50.4489V54H140.331V50.2642C140.331 49.9541 140.23 49.7043 140.029 49.5149C139.828 49.3232 139.568 49.2273 139.251 49.2273C139.033 49.2273 138.83 49.2853 138.64 49.4013C138.453 49.5173 138.302 49.6783 138.186 49.8842C138.072 50.0878 138.015 50.3234 138.015 50.5909V54H137.177ZM148.681 54V48.5455H149.519V54H148.681ZM149.107 47.6364C148.944 47.6364 148.803 47.5807 148.685 47.4695C148.569 47.3582 148.511 47.2244 148.511 47.0682C148.511 46.9119 148.569 46.7782 148.685 46.6669C148.803 46.5556 148.944 46.5 149.107 46.5C149.271 46.5 149.41 46.5556 149.526 46.6669C149.645 46.7782 149.704 46.9119 149.704 47.0682C149.704 47.2244 149.645 47.3582 149.526 47.4695C149.41 47.5807 149.271 47.6364 149.107 47.6364ZM151.054 56.0455V48.5455H151.864V49.4119H151.963C152.025 49.3172 152.11 49.1965 152.219 49.0497C152.33 48.9006 152.489 48.768 152.695 48.652C152.903 48.5336 153.185 48.4744 153.54 48.4744C153.999 48.4744 154.404 48.5893 154.754 48.8189C155.105 49.0485 155.378 49.3741 155.575 49.7955C155.771 50.2169 155.869 50.714 155.869 51.2869C155.869 51.8646 155.771 52.3653 155.575 52.7891C155.378 53.2105 155.106 53.5372 154.758 53.7692C154.41 53.9988 154.009 54.1136 153.554 54.1136C153.204 54.1136 152.923 54.0556 152.713 53.9396C152.502 53.8213 152.34 53.6875 152.226 53.5384C152.112 53.3868 152.025 53.2614 151.963 53.1619H151.892V56.0455H151.054ZM151.878 51.2727C151.878 51.6847 151.938 52.0481 152.059 52.3629C152.18 52.6754 152.356 52.9205 152.588 53.098C152.82 53.2732 153.104 53.3608 153.441 53.3608C153.791 53.3608 154.083 53.2685 154.318 53.0838C154.554 52.8968 154.732 52.6458 154.85 52.331C154.971 52.0137 155.031 51.661 155.031 51.2727C155.031 50.8892 154.972 50.5436 154.854 50.2358C154.738 49.9257 154.561 49.6806 154.325 49.5007C154.09 49.3184 153.796 49.2273 153.441 49.2273C153.1 49.2273 152.813 49.3137 152.581 49.4865C152.349 49.657 152.174 49.8961 152.056 50.2038C151.937 50.5092 151.878 50.8655 151.878 51.2727ZM161.012 49.767L160.259 49.9801C160.211 49.8546 160.142 49.7327 160.049 49.6143C159.959 49.4936 159.836 49.3942 159.68 49.3161C159.524 49.2379 159.324 49.1989 159.08 49.1989C158.746 49.1989 158.468 49.2758 158.245 49.4297C158.025 49.5812 157.915 49.7741 157.915 50.0085C157.915 50.2169 157.991 50.3814 158.142 50.5021C158.294 50.6229 158.53 50.7235 158.852 50.804L159.662 51.0028C160.15 51.1212 160.513 51.3023 160.752 51.5462C160.991 51.7876 161.111 52.099 161.111 52.4801C161.111 52.7926 161.021 53.072 160.841 53.3182C160.664 53.5644 160.415 53.7585 160.095 53.9006C159.776 54.0426 159.404 54.1136 158.98 54.1136C158.424 54.1136 157.963 53.9929 157.599 53.7514C157.234 53.5099 157.003 53.1572 156.906 52.6932L157.702 52.4943C157.778 52.7879 157.921 53.008 158.132 53.1548C158.345 53.3016 158.623 53.375 158.966 53.375C159.357 53.375 159.667 53.2921 159.896 53.1264C160.128 52.9583 160.244 52.7571 160.244 52.5227C160.244 52.3333 160.178 52.1747 160.046 52.0469C159.913 51.9167 159.709 51.8196 159.435 51.7557L158.526 51.5426C158.026 51.4242 157.659 51.2408 157.425 50.9922C157.193 50.7412 157.077 50.4276 157.077 50.0511C157.077 49.7434 157.163 49.4711 157.336 49.2344C157.511 48.9976 157.749 48.8118 158.05 48.6768C158.353 48.5419 158.696 48.4744 159.08 48.4744C159.619 48.4744 160.043 48.5928 160.351 48.8295C160.661 49.0663 160.881 49.3788 161.012 49.767ZM162.373 54V48.5455H163.182V49.3977H163.253C163.367 49.1065 163.55 48.8804 163.804 48.7195C164.057 48.5561 164.361 48.4744 164.716 48.4744C165.076 48.4744 165.376 48.5561 165.615 48.7195C165.856 48.8804 166.044 49.1065 166.179 49.3977H166.236C166.376 49.116 166.585 48.8923 166.865 48.7266C167.144 48.5585 167.479 48.4744 167.87 48.4744C168.357 48.4744 168.756 48.6271 169.066 48.9325C169.377 49.2356 169.532 49.7079 169.532 50.3494V54H168.694V50.3494C168.694 49.947 168.583 49.6593 168.363 49.4865C168.143 49.3137 167.884 49.2273 167.586 49.2273C167.202 49.2273 166.905 49.3433 166.694 49.5753C166.484 49.8049 166.378 50.0961 166.378 50.4489V54H165.526V50.2642C165.526 49.9541 165.425 49.7043 165.224 49.5149C165.023 49.3232 164.764 49.2273 164.446 49.2273C164.229 49.2273 164.025 49.2853 163.836 49.4013C163.649 49.5173 163.497 49.6783 163.381 49.8842C163.267 50.0878 163.211 50.3234 163.211 50.5909V54H162.373ZM27.6051 58.7273V66H26.767V58.7273H27.6051ZM29.1401 66V60.5455H29.9498V61.3693H30.0066C30.106 61.0994 30.2859 60.8804 30.5463 60.7124C30.8068 60.5443 31.1003 60.4602 31.427 60.4602C31.4886 60.4602 31.5655 60.4614 31.6578 60.4638C31.7502 60.4661 31.82 60.4697 31.8674 60.4744V61.3267C31.839 61.3196 31.7739 61.3089 31.6721 61.2947C31.5726 61.2782 31.4673 61.2699 31.356 61.2699C31.0909 61.2699 30.8541 61.3255 30.6458 61.4368C30.4398 61.5457 30.2765 61.6972 30.1557 61.8913C30.0373 62.0831 29.9782 62.3021 29.9782 62.5483V66H29.1401ZM34.9817 66.1136C34.4561 66.1136 34.0028 65.9976 33.6216 65.7656C33.2428 65.5312 32.9505 65.2045 32.7445 64.7855C32.5409 64.3641 32.4391 63.8741 32.4391 63.3153C32.4391 62.7566 32.5409 62.2642 32.7445 61.8381C32.9505 61.4096 33.2369 61.0758 33.6039 60.8366C33.9732 60.5952 34.4041 60.4744 34.8965 60.4744C35.1806 60.4744 35.4611 60.5218 35.7381 60.6165C36.0151 60.7112 36.2672 60.8651 36.4945 61.0781C36.7218 61.2888 36.9029 61.5682 37.0378 61.9162C37.1728 62.2642 37.2402 62.6927 37.2402 63.2017V63.5568H33.0357V62.8324H36.388C36.388 62.5246 36.3264 62.25 36.2033 62.0085C36.0826 61.767 35.9097 61.5765 35.6848 61.4368C35.4623 61.2971 35.1995 61.2273 34.8965 61.2273C34.5627 61.2273 34.2739 61.3101 34.03 61.4759C33.7885 61.6392 33.6027 61.8523 33.4725 62.1151C33.3423 62.3778 33.2772 62.6596 33.2772 62.9602V63.4432C33.2772 63.8551 33.3482 64.2043 33.4902 64.4908C33.6346 64.7749 33.8347 64.9915 34.0904 65.1406C34.3461 65.2874 34.6432 65.3608 34.9817 65.3608C35.2019 65.3608 35.4007 65.33 35.5783 65.2685C35.7582 65.2045 35.9133 65.1098 36.0435 64.9844C36.1737 64.8565 36.2743 64.6979 36.3453 64.5085L37.155 64.7358C37.0698 65.0104 36.9266 65.2519 36.7253 65.4602C36.5241 65.6662 36.2755 65.8272 35.9796 65.9432C35.6837 66.0568 35.351 66.1136 34.9817 66.1136ZM40.731 66.1136C40.2386 66.1136 39.8065 65.9964 39.4348 65.7621C39.0655 65.5277 38.7767 65.1998 38.5684 64.7784C38.3624 64.357 38.2594 63.8646 38.2594 63.3011C38.2594 62.733 38.3624 62.237 38.5684 61.8132C38.7767 61.3894 39.0655 61.0604 39.4348 60.826C39.8065 60.5916 40.2386 60.4744 40.731 60.4744C41.2234 60.4744 41.6543 60.5916 42.0236 60.826C42.3953 61.0604 42.6841 61.3894 42.8901 61.8132C43.0984 62.237 43.2026 62.733 43.2026 63.3011C43.2026 63.8646 43.0984 64.357 42.8901 64.7784C42.6841 65.1998 42.3953 65.5277 42.0236 65.7621C41.6543 65.9964 41.2234 66.1136 40.731 66.1136ZM40.731 65.3608C41.1051 65.3608 41.4128 65.2649 41.6543 65.0732C41.8958 64.8814 42.0745 64.6293 42.1905 64.3168C42.3065 64.0043 42.3645 63.6657 42.3645 63.3011C42.3645 62.9366 42.3065 62.5968 42.1905 62.282C42.0745 61.9671 41.8958 61.7126 41.6543 61.5185C41.4128 61.3243 41.1051 61.2273 40.731 61.2273C40.3569 61.2273 40.0492 61.3243 39.8077 61.5185C39.5662 61.7126 39.3875 61.9671 39.2715 62.282C39.1555 62.5968 39.0975 62.9366 39.0975 63.3011C39.0975 63.6657 39.1555 64.0043 39.2715 64.3168C39.3875 64.6293 39.5662 64.8814 39.8077 65.0732C40.0492 65.2649 40.3569 65.3608 40.731 65.3608ZM44.4819 66V60.5455H45.2915V61.3977H45.3626C45.4762 61.1065 45.6597 60.8804 45.913 60.7195C46.1663 60.5561 46.4705 60.4744 46.8256 60.4744C47.1855 60.4744 47.485 60.5561 47.7241 60.7195C47.9656 60.8804 48.1538 61.1065 48.2887 61.3977H48.3455C48.4852 61.116 48.6947 60.8923 48.9741 60.7266C49.2534 60.5585 49.5884 60.4744 49.979 60.4744C50.4667 60.4744 50.8656 60.6271 51.1758 60.9325C51.4859 61.2356 51.641 61.7079 51.641 62.3494V66H50.8029V62.3494C50.8029 61.947 50.6928 61.6593 50.4727 61.4865C50.2525 61.3137 49.9933 61.2273 49.695 61.2273C49.3114 61.2273 49.0143 61.3433 48.8036 61.5753C48.5929 61.8049 48.4876 62.0961 48.4876 62.4489V66H47.6353V62.2642C47.6353 61.9541 47.5347 61.7043 47.3335 61.5149C47.1322 61.3232 46.873 61.2273 46.5558 61.2273C46.3379 61.2273 46.1344 61.2853 45.945 61.4013C45.7579 61.5173 45.6064 61.6783 45.4904 61.8842C45.3768 62.0878 45.32 62.3234 45.32 62.5909V66H44.4819ZM59.8494 61.767L59.0966 61.9801C59.0492 61.8546 58.9794 61.7327 58.8871 61.6143C58.7971 61.4936 58.674 61.3942 58.5178 61.3161C58.3615 61.2379 58.1615 61.1989 57.9176 61.1989C57.5838 61.1989 57.3056 61.2758 57.0831 61.4297C56.8629 61.5812 56.7528 61.7741 56.7528 62.0085C56.7528 62.2169 56.8286 62.3814 56.9801 62.5021C57.1316 62.6229 57.3684 62.7235 57.6903 62.804L58.5 63.0028C58.9877 63.1212 59.3511 63.3023 59.5902 63.5462C59.8293 63.7876 59.9489 64.099 59.9489 64.4801C59.9489 64.7926 59.8589 65.072 59.679 65.3182C59.5014 65.5644 59.2528 65.7585 58.9332 65.9006C58.6136 66.0426 58.242 66.1136 57.8182 66.1136C57.2618 66.1136 56.8014 65.9929 56.4368 65.7514C56.0722 65.5099 55.8414 65.1572 55.7443 64.6932L56.5398 64.4943C56.6155 64.7879 56.7588 65.008 56.9695 65.1548C57.1825 65.3016 57.4607 65.375 57.804 65.375C58.1946 65.375 58.5047 65.2921 58.7344 65.1264C58.9664 64.9583 59.0824 64.7571 59.0824 64.5227C59.0824 64.3333 59.0161 64.1747 58.8835 64.0469C58.7509 63.9167 58.5473 63.8196 58.2727 63.7557L57.3636 63.5426C56.8641 63.4242 56.4972 63.2408 56.2628 62.9922C56.0308 62.7412 55.9148 62.4276 55.9148 62.0511C55.9148 61.7434 56.0012 61.4711 56.174 61.2344C56.3492 60.9976 56.5871 60.8118 56.8878 60.6768C57.1908 60.5419 57.5341 60.4744 57.9176 60.4744C58.4574 60.4744 58.8812 60.5928 59.1889 60.8295C59.4991 61.0663 59.7192 61.3788 59.8494 61.767ZM62.8155 66.1278C62.4699 66.1278 62.1562 66.0627 61.8745 65.9325C61.5927 65.8 61.369 65.6094 61.2033 65.3608C61.0376 65.1098 60.9547 64.8068 60.9547 64.4517C60.9547 64.1392 61.0163 63.8859 61.1394 63.6918C61.2625 63.4953 61.427 63.3414 61.633 63.2301C61.839 63.1188 62.0662 63.036 62.3148 62.9815C62.5658 62.9247 62.8179 62.8797 63.0712 62.8466C63.4026 62.804 63.6713 62.772 63.8773 62.7507C64.0856 62.727 64.2372 62.688 64.3319 62.6335C64.4289 62.5791 64.4775 62.4844 64.4775 62.3494V62.321C64.4775 61.9706 64.3816 61.6984 64.1898 61.5043C64.0004 61.3101 63.7128 61.2131 63.3269 61.2131C62.9268 61.2131 62.6131 61.3007 62.3858 61.4759C62.1586 61.651 61.9988 61.8381 61.9064 62.0369L61.111 61.7528C61.253 61.4214 61.4424 61.1634 61.6792 60.9787C61.9183 60.7917 62.1787 60.6615 62.4604 60.5881C62.7445 60.5123 63.0239 60.4744 63.2985 60.4744C63.4737 60.4744 63.6749 60.4957 63.9022 60.5384C64.1318 60.5786 64.3532 60.6626 64.5662 60.7905C64.7817 60.9183 64.9604 61.1113 65.1025 61.3693C65.2445 61.6274 65.3155 61.973 65.3155 62.4062V66H64.4775V65.2614H64.4348C64.378 65.3797 64.2833 65.5064 64.1507 65.6413C64.0182 65.7763 63.8418 65.8911 63.6216 65.9858C63.4015 66.0805 63.1328 66.1278 62.8155 66.1278ZM62.9434 65.375C63.2748 65.375 63.5542 65.3099 63.7814 65.1797C64.0111 65.0495 64.1839 64.8814 64.2999 64.6754C64.4183 64.4695 64.4775 64.2528 64.4775 64.0256V63.2585C64.4419 63.3011 64.3638 63.3402 64.2431 63.3757C64.1247 63.4089 63.9874 63.4384 63.8311 63.4645C63.6773 63.4882 63.5269 63.5095 63.3801 63.5284C63.2357 63.545 63.1185 63.5592 63.0286 63.571C62.8108 63.5994 62.6072 63.6456 62.4178 63.7095C62.2308 63.7711 62.0792 63.8646 61.9632 63.9901C61.8496 64.1132 61.7928 64.2812 61.7928 64.4943C61.7928 64.7855 61.9005 65.0057 62.1159 65.1548C62.3337 65.3016 62.6096 65.375 62.9434 65.375ZM69.0611 66.1136C68.5687 66.1136 68.1366 65.9964 67.7649 65.7621C67.3956 65.5277 67.1068 65.1998 66.8984 64.7784C66.6925 64.357 66.5895 63.8646 66.5895 63.3011C66.5895 62.733 66.6925 62.237 66.8984 61.8132C67.1068 61.3894 67.3956 61.0604 67.7649 60.826C68.1366 60.5916 68.5687 60.4744 69.0611 60.4744C69.5535 60.4744 69.9844 60.5916 70.3537 60.826C70.7254 61.0604 71.0142 61.3894 71.2202 61.8132C71.4285 62.237 71.5327 62.733 71.5327 63.3011C71.5327 63.8646 71.4285 64.357 71.2202 64.7784C71.0142 65.1998 70.7254 65.5277 70.3537 65.7621C69.9844 65.9964 69.5535 66.1136 69.0611 66.1136ZM69.0611 65.3608C69.4351 65.3608 69.7429 65.2649 69.9844 65.0732C70.2259 64.8814 70.4046 64.6293 70.5206 64.3168C70.6366 64.0043 70.6946 63.6657 70.6946 63.3011C70.6946 62.9366 70.6366 62.5968 70.5206 62.282C70.4046 61.9671 70.2259 61.7126 69.9844 61.5185C69.7429 61.3243 69.4351 61.2273 69.0611 61.2273C68.687 61.2273 68.3793 61.3243 68.1378 61.5185C67.8963 61.7126 67.7176 61.9671 67.6016 62.282C67.4856 62.5968 67.4276 62.9366 67.4276 63.3011C67.4276 63.6657 67.4856 64.0043 67.6016 64.3168C67.7176 64.6293 67.8963 64.8814 68.1378 65.0732C68.3793 65.2649 68.687 65.3608 69.0611 65.3608ZM76.5336 68.0455V65.1619H76.4625C76.401 65.2614 76.3134 65.3868 76.1998 65.5384C76.0861 65.6875 75.9239 65.8213 75.7132 65.9396C75.5025 66.0556 75.222 66.1136 74.8716 66.1136C74.4171 66.1136 74.0158 65.9988 73.6678 65.7692C73.3198 65.5372 73.0475 65.2105 72.851 64.7891C72.6545 64.3653 72.5563 63.8646 72.5563 63.2869C72.5563 62.714 72.6545 62.2169 72.851 61.7955C73.0475 61.3741 73.321 61.0485 73.6713 60.8189C74.0217 60.5893 74.4266 60.4744 74.8858 60.4744C75.2409 60.4744 75.5215 60.5336 75.7275 60.652C75.9358 60.768 76.0944 60.9006 76.2033 61.0497C76.3146 61.1965 76.401 61.3172 76.4625 61.4119H76.562V60.5455H77.3716V68.0455H76.5336ZM74.9853 65.3608C75.3214 65.3608 75.6055 65.2732 75.8375 65.098C76.0695 64.9205 76.2459 64.6754 76.3667 64.3629C76.4874 64.0481 76.5478 63.6847 76.5478 63.2727C76.5478 62.8655 76.4886 62.5092 76.3702 62.2038C76.2518 61.8961 76.0766 61.657 75.8446 61.4865C75.6126 61.3137 75.3262 61.2273 74.9853 61.2273C74.6301 61.2273 74.3342 61.3184 74.0975 61.5007C73.8631 61.6806 73.6867 61.9257 73.5684 62.2358C73.4524 62.5436 73.3944 62.8892 73.3944 63.2727C73.3944 63.661 73.4535 64.0137 73.5719 64.331C73.6926 64.6458 73.8702 64.8968 74.1046 65.0838C74.3413 65.2685 74.6349 65.3608 74.9853 65.3608ZM78.9057 66V60.5455H79.7438V66H78.9057ZM79.3319 59.6364C79.1685 59.6364 79.0276 59.5807 78.9093 59.4695C78.7933 59.3582 78.7353 59.2244 78.7353 59.0682C78.7353 58.9119 78.7933 58.7782 78.9093 58.6669C79.0276 58.5556 79.1685 58.5 79.3319 58.5C79.4952 58.5 79.6349 58.5556 79.7509 58.6669C79.8693 58.7782 79.9284 58.9119 79.9284 59.0682C79.9284 59.2244 79.8693 59.3582 79.7509 59.4695C79.6349 59.5807 79.4952 59.6364 79.3319 59.6364ZM82.8839 66.1278C82.5382 66.1278 82.2246 66.0627 81.9428 65.9325C81.6611 65.8 81.4374 65.6094 81.2717 65.3608C81.1059 65.1098 81.0231 64.8068 81.0231 64.4517C81.0231 64.1392 81.0846 63.8859 81.2077 63.6918C81.3308 63.4953 81.4954 63.3414 81.7013 63.2301C81.9073 63.1188 82.1346 63.036 82.3832 62.9815C82.6341 62.9247 82.8862 62.8797 83.1396 62.8466C83.471 62.804 83.7397 62.772 83.9457 62.7507C84.154 62.727 84.3055 62.688 84.4002 62.6335C84.4973 62.5791 84.5458 62.4844 84.5458 62.3494V62.321C84.5458 61.9706 84.4499 61.6984 84.2582 61.5043C84.0688 61.3101 83.7811 61.2131 83.3952 61.2131C82.9951 61.2131 82.6815 61.3007 82.4542 61.4759C82.2269 61.651 82.0671 61.8381 81.9748 62.0369L81.1793 61.7528C81.3214 61.4214 81.5108 61.1634 81.7475 60.9787C81.9866 60.7917 82.247 60.6615 82.5288 60.5881C82.8129 60.5123 83.0922 60.4744 83.3668 60.4744C83.542 60.4744 83.7433 60.4957 83.9705 60.5384C84.2002 60.5786 84.4215 60.6626 84.6346 60.7905C84.85 60.9183 85.0288 61.1113 85.1708 61.3693C85.3129 61.6274 85.3839 61.973 85.3839 62.4062V66H84.5458V65.2614H84.5032C84.4464 65.3797 84.3517 65.5064 84.2191 65.6413C84.0865 65.7763 83.9102 65.8911 83.69 65.9858C83.4698 66.0805 83.2011 66.1278 82.8839 66.1278ZM83.0117 65.375C83.3432 65.375 83.6225 65.3099 83.8498 65.1797C84.0794 65.0495 84.2522 64.8814 84.3683 64.6754C84.4866 64.4695 84.5458 64.2528 84.5458 64.0256V63.2585C84.5103 63.3011 84.4322 63.3402 84.3114 63.3757C84.1931 63.4089 84.0558 63.4384 83.8995 63.4645C83.7456 63.4882 83.5953 63.5095 83.4485 63.5284C83.3041 63.545 83.1869 63.5592 83.0969 63.571C82.8791 63.5994 82.6755 63.6456 82.4862 63.7095C82.2991 63.7711 82.1476 63.8646 82.0316 63.9901C81.918 64.1132 81.8612 64.2812 81.8612 64.4943C81.8612 64.7855 81.9689 65.0057 82.1843 65.1548C82.4021 65.3016 82.6779 65.375 83.0117 65.375ZM87.7516 62.7188V66H86.9135V60.5455H87.7232V61.3977H87.7942C87.9221 61.1207 88.1162 60.8982 88.3766 60.7301C88.637 60.5597 88.9732 60.4744 89.3851 60.4744C89.7544 60.4744 90.0776 60.5502 90.3546 60.7017C90.6316 60.8509 90.847 61.0781 91.0009 61.3835C91.1548 61.6866 91.2317 62.0701 91.2317 62.5341V66H90.3936V62.5909C90.3936 62.1624 90.2824 61.8286 90.0598 61.5895C89.8373 61.348 89.5319 61.2273 89.1436 61.2273C88.8761 61.2273 88.637 61.2853 88.4263 61.4013C88.218 61.5173 88.0534 61.6866 87.9327 61.9091C87.812 62.1316 87.7516 62.4015 87.7516 62.7188ZM94.8228 66.1136C94.3683 66.1136 93.967 65.9988 93.619 65.7692C93.271 65.5372 92.9987 65.2105 92.8022 64.7891C92.6057 64.3653 92.5075 63.8646 92.5075 63.2869C92.5075 62.714 92.6057 62.2169 92.8022 61.7955C92.9987 61.3741 93.2721 61.0485 93.6225 60.8189C93.9729 60.5893 94.3777 60.4744 94.837 60.4744C95.1921 60.4744 95.4727 60.5336 95.6786 60.652C95.887 60.768 96.0456 60.9006 96.1545 61.0497C96.2657 61.1965 96.3522 61.3172 96.4137 61.4119H96.4847V58.7273H97.3228V66H96.5131V65.1619H96.4137C96.3522 65.2614 96.2646 65.3868 96.1509 65.5384C96.0373 65.6875 95.8751 65.8213 95.6644 65.9396C95.4537 66.0556 95.1732 66.1136 94.8228 66.1136ZM94.9364 65.3608C95.2726 65.3608 95.5567 65.2732 95.7887 65.098C96.0207 64.9205 96.1971 64.6754 96.3178 64.3629C96.4386 64.0481 96.4989 63.6847 96.4989 63.2727C96.4989 62.8655 96.4397 62.5092 96.3214 62.2038C96.203 61.8961 96.0278 61.657 95.7958 61.4865C95.5638 61.3137 95.2773 61.2273 94.9364 61.2273C94.5813 61.2273 94.2854 61.3184 94.0487 61.5007C93.8143 61.6806 93.6379 61.9257 93.5195 62.2358C93.4035 62.5436 93.3455 62.8892 93.3455 63.2727C93.3455 63.661 93.4047 64.0137 93.5231 64.331C93.6438 64.6458 93.8214 64.8968 94.0558 65.0838C94.2925 65.2685 94.5861 65.3608 94.9364 65.3608ZM99.7553 64.0114L99.7411 62.9744H99.9116L102.298 60.5455H103.335L100.792 63.1165H100.721L99.7553 64.0114ZM98.9741 66V58.7273H99.8121V66H98.9741ZM102.44 66L100.309 63.3011L100.906 62.7188L103.505 66H102.44ZM108.277 61.767L107.524 61.9801C107.477 61.8546 107.407 61.7327 107.315 61.6143C107.225 61.4936 107.102 61.3942 106.945 61.3161C106.789 61.2379 106.589 61.1989 106.345 61.1989C106.012 61.1989 105.733 61.2758 105.511 61.4297C105.291 61.5812 105.181 61.7741 105.181 62.0085C105.181 62.2169 105.256 62.3814 105.408 62.5021C105.559 62.6229 105.796 62.7235 106.118 62.804L106.928 63.0028C107.415 63.1212 107.779 63.3023 108.018 63.5462C108.257 63.7876 108.377 64.099 108.377 64.4801C108.377 64.7926 108.287 65.072 108.107 65.3182C107.929 65.5644 107.681 65.7585 107.361 65.9006C107.041 66.0426 106.67 66.1136 106.246 66.1136C105.69 66.1136 105.229 65.9929 104.865 65.7514C104.5 65.5099 104.269 65.1572 104.172 64.6932L104.968 64.4943C105.043 64.7879 105.186 65.008 105.397 65.1548C105.61 65.3016 105.888 65.375 106.232 65.375C106.622 65.375 106.932 65.2921 107.162 65.1264C107.394 64.9583 107.51 64.7571 107.51 64.5227C107.51 64.3333 107.444 64.1747 107.311 64.0469C107.179 63.9167 106.975 63.8196 106.7 63.7557L105.791 63.5426C105.292 63.4242 104.925 63.2408 104.691 62.9922C104.459 62.7412 104.343 62.4276 104.343 62.0511C104.343 61.7434 104.429 61.4711 104.602 61.2344C104.777 60.9976 105.015 60.8118 105.316 60.6768C105.619 60.5419 105.962 60.4744 106.345 60.4744C106.885 60.4744 107.309 60.5928 107.617 60.8295C107.927 61.0663 108.147 61.3788 108.277 61.767ZM110.476 62.7188V66H109.638V60.5455H110.448V61.3977H110.519C110.647 61.1207 110.841 60.8982 111.101 60.7301C111.362 60.5597 111.698 60.4744 112.11 60.4744C112.479 60.4744 112.802 60.5502 113.079 60.7017C113.356 60.8509 113.572 61.0781 113.725 61.3835C113.879 61.6866 113.956 62.0701 113.956 62.5341V66H113.118V62.5909C113.118 62.1624 113.007 61.8286 112.784 61.5895C112.562 61.348 112.257 61.2273 111.868 61.2273C111.601 61.2273 111.362 61.2853 111.151 61.4013C110.943 61.5173 110.778 61.6866 110.657 61.9091C110.537 62.1316 110.476 62.4015 110.476 62.7188ZM117.093 66.1278C116.747 66.1278 116.434 66.0627 116.152 65.9325C115.87 65.8 115.646 65.6094 115.481 65.3608C115.315 65.1098 115.232 64.8068 115.232 64.4517C115.232 64.1392 115.294 63.8859 115.417 63.6918C115.54 63.4953 115.704 63.3414 115.91 63.2301C116.116 63.1188 116.344 63.036 116.592 62.9815C116.843 62.9247 117.095 62.8797 117.349 62.8466C117.68 62.804 117.949 62.772 118.155 62.7507C118.363 62.727 118.515 62.688 118.609 62.6335C118.706 62.5791 118.755 62.4844 118.755 62.3494V62.321C118.755 61.9706 118.659 61.6984 118.467 61.5043C118.278 61.3101 117.99 61.2131 117.604 61.2131C117.204 61.2131 116.89 61.3007 116.663 61.4759C116.436 61.651 116.276 61.8381 116.184 62.0369L115.388 61.7528C115.53 61.4214 115.72 61.1634 115.956 60.9787C116.196 60.7917 116.456 60.6615 116.738 60.5881C117.022 60.5123 117.301 60.4744 117.576 60.4744C117.751 60.4744 117.952 60.4957 118.18 60.5384C118.409 60.5786 118.631 60.6626 118.844 60.7905C119.059 60.9183 119.238 61.1113 119.38 61.3693C119.522 61.6274 119.593 61.973 119.593 62.4062V66H118.755V65.2614H118.712C118.655 65.3797 118.561 65.5064 118.428 65.6413C118.296 65.7763 118.119 65.8911 117.899 65.9858C117.679 66.0805 117.41 66.1278 117.093 66.1278ZM117.221 65.375C117.552 65.375 117.831 65.3099 118.059 65.1797C118.288 65.0495 118.461 64.8814 118.577 64.6754C118.696 64.4695 118.755 64.2528 118.755 64.0256V63.2585C118.719 63.3011 118.641 63.3402 118.52 63.3757C118.402 63.4089 118.265 63.4384 118.108 63.4645C117.955 63.4882 117.804 63.5095 117.657 63.5284C117.513 63.545 117.396 63.5592 117.306 63.571C117.088 63.5994 116.885 63.6456 116.695 63.7095C116.508 63.7711 116.357 63.8646 116.241 63.9901C116.127 64.1132 116.07 64.2812 116.07 64.4943C116.07 64.7855 116.178 65.0057 116.393 65.1548C116.611 65.3016 116.887 65.375 117.221 65.375ZM121.961 58.7273V66H121.123V58.7273H121.961ZM125.101 66.1278C124.755 66.1278 124.441 66.0627 124.16 65.9325C123.878 65.8 123.654 65.6094 123.488 65.3608C123.323 65.1098 123.24 64.8068 123.24 64.4517C123.24 64.1392 123.301 63.8859 123.425 63.6918C123.548 63.4953 123.712 63.3414 123.918 63.2301C124.124 63.1188 124.351 63.036 124.6 62.9815C124.851 62.9247 125.103 62.8797 125.356 62.8466C125.688 62.804 125.956 62.772 126.162 62.7507C126.371 62.727 126.522 62.688 126.617 62.6335C126.714 62.5791 126.763 62.4844 126.763 62.3494V62.321C126.763 61.9706 126.667 61.6984 126.475 61.5043C126.286 61.3101 125.998 61.2131 125.612 61.2131C125.212 61.2131 124.898 61.3007 124.671 61.4759C124.444 61.651 124.284 61.8381 124.192 62.0369L123.396 61.7528C123.538 61.4214 123.728 61.1634 123.964 60.9787C124.203 60.7917 124.464 60.6615 124.746 60.5881C125.03 60.5123 125.309 60.4744 125.584 60.4744C125.759 60.4744 125.96 60.4957 126.187 60.5384C126.417 60.5786 126.638 60.6626 126.851 60.7905C127.067 60.9183 127.246 61.1113 127.388 61.3693C127.53 61.6274 127.601 61.973 127.601 62.4062V66H126.763V65.2614H126.72C126.663 65.3797 126.568 65.5064 126.436 65.6413C126.303 65.7763 126.127 65.8911 125.907 65.9858C125.687 66.0805 125.418 66.1278 125.101 66.1278ZM125.229 65.375C125.56 65.375 125.839 65.3099 126.067 65.1797C126.296 65.0495 126.469 64.8814 126.585 64.6754C126.703 64.4695 126.763 64.2528 126.763 64.0256V63.2585C126.727 63.3011 126.649 63.3402 126.528 63.3757C126.41 63.4089 126.273 63.4384 126.116 63.4645C125.962 63.4882 125.812 63.5095 125.665 63.5284C125.521 63.545 125.404 63.5592 125.314 63.571C125.096 63.5994 124.892 63.6456 124.703 63.7095C124.516 63.7711 124.364 63.8646 124.248 63.9901C124.135 64.1132 124.078 64.2812 124.078 64.4943C124.078 64.7855 124.186 65.0057 124.401 65.1548C124.619 65.3016 124.895 65.375 125.229 65.375ZM129.13 68.0455V60.5455H129.94V61.4119H130.039C130.101 61.3172 130.186 61.1965 130.295 61.0497C130.406 60.9006 130.565 60.768 130.771 60.652C130.979 60.5336 131.261 60.4744 131.616 60.4744C132.075 60.4744 132.48 60.5893 132.831 60.8189C133.181 61.0485 133.454 61.3741 133.651 61.7955C133.847 62.2169 133.946 62.714 133.946 63.2869C133.946 63.8646 133.847 64.3653 133.651 64.7891C133.454 65.2105 133.182 65.5372 132.834 65.7692C132.486 65.9988 132.085 66.1136 131.63 66.1136C131.28 66.1136 130.999 66.0556 130.789 65.9396C130.578 65.8213 130.416 65.6875 130.302 65.5384C130.189 65.3868 130.101 65.2614 130.039 65.1619H129.968V68.0455H129.13ZM129.954 63.2727C129.954 63.6847 130.015 64.0481 130.135 64.3629C130.256 64.6754 130.432 64.9205 130.664 65.098C130.896 65.2732 131.181 65.3608 131.517 65.3608C131.867 65.3608 132.159 65.2685 132.394 65.0838C132.631 64.8968 132.808 64.6458 132.926 64.331C133.047 64.0137 133.108 63.661 133.108 63.2727C133.108 62.8892 133.048 62.5436 132.93 62.2358C132.814 61.9257 132.638 61.6806 132.401 61.5007C132.167 61.3184 131.872 61.2273 131.517 61.2273C131.176 61.2273 130.889 61.3137 130.657 61.4865C130.425 61.657 130.25 61.8961 130.132 62.2038C130.013 62.5092 129.954 62.8655 129.954 63.2727ZM139.088 61.767L138.335 61.9801C138.288 61.8546 138.218 61.7327 138.125 61.6143C138.035 61.4936 137.912 61.3942 137.756 61.3161C137.6 61.2379 137.4 61.1989 137.156 61.1989C136.822 61.1989 136.544 61.2758 136.321 61.4297C136.101 61.5812 135.991 61.7741 135.991 62.0085C135.991 62.2169 136.067 62.3814 136.218 62.5021C136.37 62.6229 136.607 62.7235 136.929 62.804L137.738 63.0028C138.226 63.1212 138.589 63.3023 138.828 63.5462C139.068 63.7876 139.187 64.099 139.187 64.4801C139.187 64.7926 139.097 65.072 138.917 65.3182C138.74 65.5644 138.491 65.7585 138.172 65.9006C137.852 66.0426 137.48 66.1136 137.056 66.1136C136.5 66.1136 136.04 65.9929 135.675 65.7514C135.31 65.5099 135.08 65.1572 134.983 64.6932L135.778 64.4943C135.854 64.7879 135.997 65.008 136.208 65.1548C136.421 65.3016 136.699 65.375 137.042 65.375C137.433 65.375 137.743 65.2921 137.973 65.1264C138.205 64.9583 138.321 64.7571 138.321 64.5227C138.321 64.3333 138.254 64.1747 138.122 64.0469C137.989 63.9167 137.786 63.8196 137.511 63.7557L136.602 63.5426C136.102 63.4242 135.735 63.2408 135.501 62.9922C135.269 62.7412 135.153 62.4276 135.153 62.0511C135.153 61.7434 135.239 61.4711 135.412 61.2344C135.587 60.9976 135.825 60.8118 136.126 60.6768C136.429 60.5419 136.772 60.4744 137.156 60.4744C137.696 60.4744 138.119 60.5928 138.427 60.8295C138.737 61.0663 138.958 61.3788 139.088 61.767ZM142.508 66.1136C142.054 66.1136 141.653 65.9988 141.305 65.7692C140.956 65.5372 140.684 65.2105 140.488 64.7891C140.291 64.3653 140.193 63.8646 140.193 63.2869C140.193 62.714 140.291 62.2169 140.488 61.7955C140.684 61.3741 140.958 61.0485 141.308 60.8189C141.658 60.5893 142.063 60.4744 142.523 60.4744C142.878 60.4744 143.158 60.5336 143.364 60.652C143.573 60.768 143.731 60.9006 143.84 61.0497C143.951 61.1965 144.038 61.3172 144.099 61.4119H144.17V58.7273H145.008V66H144.199V65.1619H144.099C144.038 65.2614 143.95 65.3868 143.836 65.5384C143.723 65.6875 143.561 65.8213 143.35 65.9396C143.139 66.0556 142.859 66.1136 142.508 66.1136ZM142.622 65.3608C142.958 65.3608 143.242 65.2732 143.474 65.098C143.706 64.9205 143.883 64.6754 144.003 64.3629C144.124 64.0481 144.184 63.6847 144.184 63.2727C144.184 62.8655 144.125 62.5092 144.007 62.2038C143.889 61.8961 143.713 61.657 143.481 61.4865C143.249 61.3137 142.963 61.2273 142.622 61.2273C142.267 61.2273 141.971 61.3184 141.734 61.5007C141.5 61.6806 141.323 61.9257 141.205 62.2358C141.089 62.5436 141.031 62.8892 141.031 63.2727C141.031 63.661 141.09 64.0137 141.209 64.331C141.329 64.6458 141.507 64.8968 141.741 65.0838C141.978 65.2685 142.272 65.3608 142.622 65.3608ZM149.089 60.5455V61.2557H146.148V60.5455H149.089ZM147.029 66V59.7926C147.029 59.4801 147.102 59.2197 147.249 59.0114C147.396 58.803 147.586 58.6468 147.821 58.5426C148.055 58.4384 148.303 58.3864 148.563 58.3864C148.769 58.3864 148.937 58.4029 149.067 58.4361C149.198 58.4692 149.295 58.5 149.358 58.5284L149.117 59.2528C149.074 59.2386 149.015 59.2209 148.939 59.1996C148.866 59.1783 148.769 59.1676 148.648 59.1676C148.371 59.1676 148.171 59.2375 148.048 59.3771C147.927 59.5168 147.867 59.7216 147.867 59.9915V66H147.029ZM152.254 66.1136C151.762 66.1136 151.33 65.9964 150.958 65.7621C150.589 65.5277 150.3 65.1998 150.092 64.7784C149.886 64.357 149.783 63.8646 149.783 63.3011C149.783 62.733 149.886 62.237 150.092 61.8132C150.3 61.3894 150.589 61.0604 150.958 60.826C151.33 60.5916 151.762 60.4744 152.254 60.4744C152.747 60.4744 153.178 60.5916 153.547 60.826C153.919 61.0604 154.208 61.3894 154.414 61.8132C154.622 62.237 154.726 62.733 154.726 63.3011C154.726 63.8646 154.622 64.357 154.414 64.7784C154.208 65.1998 153.919 65.5277 153.547 65.7621C153.178 65.9964 152.747 66.1136 152.254 66.1136ZM152.254 65.3608C152.628 65.3608 152.936 65.2649 153.178 65.0732C153.419 64.8814 153.598 64.6293 153.714 64.3168C153.83 64.0043 153.888 63.6657 153.888 63.3011C153.888 62.9366 153.83 62.5968 153.714 62.282C153.598 61.9671 153.419 61.7126 153.178 61.5185C152.936 61.3243 152.628 61.2273 152.254 61.2273C151.88 61.2273 151.573 61.3243 151.331 61.5185C151.09 61.7126 150.911 61.9671 150.795 62.282C150.679 62.5968 150.621 62.9366 150.621 63.3011C150.621 63.6657 150.679 64.0043 150.795 64.3168C150.911 64.6293 151.09 64.8814 151.331 65.0732C151.573 65.2649 151.88 65.3608 152.254 65.3608ZM156.787 64.0114L156.772 62.9744H156.943L159.329 60.5455H160.366L157.824 63.1165H157.752L156.787 64.0114ZM156.005 66V58.7273H156.843V66H156.005ZM159.471 66L157.341 63.3011L157.937 62.7188L160.537 66H159.471ZM28.3722 78.1278C28.0265 78.1278 27.7128 78.0627 27.4311 77.9325C27.1494 77.8 26.9257 77.6094 26.7599 77.3608C26.5942 77.1098 26.5114 76.8068 26.5114 76.4517C26.5114 76.1392 26.5729 75.8859 26.696 75.6918C26.8191 75.4953 26.9837 75.3414 27.1896 75.2301C27.3956 75.1188 27.6229 75.036 27.8714 74.9815C28.1224 74.9247 28.3745 74.8797 28.6278 74.8466C28.9593 74.804 29.228 74.772 29.4339 74.7507C29.6423 74.727 29.7938 74.688 29.8885 74.6335C29.9856 74.5791 30.0341 74.4844 30.0341 74.3494V74.321C30.0341 73.9706 29.9382 73.6984 29.7464 73.5043C29.5571 73.3101 29.2694 73.2131 28.8835 73.2131C28.4834 73.2131 28.1697 73.3007 27.9425 73.4759C27.7152 73.651 27.5554 73.8381 27.4631 74.0369L26.6676 73.7528C26.8097 73.4214 26.9991 73.1634 27.2358 72.9787C27.4749 72.7917 27.7353 72.6615 28.017 72.5881C28.3011 72.5123 28.5805 72.4744 28.8551 72.4744C29.0303 72.4744 29.2315 72.4957 29.4588 72.5384C29.6884 72.5786 29.9098 72.6626 30.1229 72.7905C30.3383 72.9183 30.517 73.1113 30.6591 73.3693C30.8011 73.6274 30.8722 73.973 30.8722 74.4062V78H30.0341V77.2614H29.9915C29.9347 77.3797 29.84 77.5064 29.7074 77.6413C29.5748 77.7763 29.3984 77.8911 29.1783 77.9858C28.9581 78.0805 28.6894 78.1278 28.3722 78.1278ZM28.5 77.375C28.8314 77.375 29.1108 77.3099 29.3381 77.1797C29.5677 77.0495 29.7405 76.8814 29.8565 76.6754C29.9749 76.4695 30.0341 76.2528 30.0341 76.0256V75.2585C29.9986 75.3011 29.9205 75.3402 29.7997 75.3757C29.6813 75.4089 29.544 75.4384 29.3878 75.4645C29.2339 75.4882 29.0836 75.5095 28.9368 75.5284C28.7924 75.545 28.6752 75.5592 28.5852 75.571C28.3674 75.5994 28.1638 75.6456 27.9744 75.7095C27.7874 75.7711 27.6359 75.8646 27.5199 75.9901C27.4063 76.1132 27.3494 76.2812 27.3494 76.4943C27.3494 76.7855 27.4571 77.0057 27.6726 77.1548C27.8904 77.3016 28.1662 77.375 28.5 77.375ZM36.2654 73.767L35.5126 73.9801C35.4653 73.8546 35.3954 73.7327 35.3031 73.6143C35.2131 73.4936 35.09 73.3942 34.9338 73.3161C34.7775 73.2379 34.5775 73.1989 34.3336 73.1989C33.9998 73.1989 33.7217 73.2758 33.4991 73.4297C33.2789 73.5812 33.1689 73.7741 33.1689 74.0085C33.1689 74.2169 33.2446 74.3814 33.3961 74.5021C33.5476 74.6229 33.7844 74.7235 34.1064 74.804L34.916 75.0028C35.4037 75.1212 35.7671 75.3023 36.0062 75.5462C36.2453 75.7876 36.3649 76.099 36.3649 76.4801C36.3649 76.7926 36.2749 77.072 36.095 77.3182C35.9174 77.5644 35.6689 77.7585 35.3493 77.9006C35.0297 78.0426 34.658 78.1136 34.2342 78.1136C33.6779 78.1136 33.2174 77.9929 32.8528 77.7514C32.4882 77.5099 32.2574 77.1572 32.1603 76.6932L32.9558 76.4943C33.0315 76.7879 33.1748 77.008 33.3855 77.1548C33.5985 77.3016 33.8767 77.375 34.22 77.375C34.6106 77.375 34.9208 77.2921 35.1504 77.1264C35.3824 76.9583 35.4984 76.7571 35.4984 76.5227C35.4984 76.3333 35.4321 76.1747 35.2995 76.0469C35.167 75.9167 34.9634 75.8196 34.6887 75.7557L33.7797 75.5426C33.2801 75.4242 32.9132 75.2408 32.6788 74.9922C32.4468 74.7412 32.3308 74.4276 32.3308 74.0511C32.3308 73.7434 32.4172 73.4711 32.59 73.2344C32.7652 72.9976 33.0031 72.8118 33.3038 72.6768C33.6068 72.5419 33.9501 72.4744 34.3336 72.4744C34.8734 72.4744 35.2972 72.5928 35.6049 72.8295C35.9151 73.0663 36.1352 73.3788 36.2654 73.767ZM39.6861 78.1136C39.2315 78.1136 38.8303 77.9988 38.4822 77.7692C38.1342 77.5372 37.862 77.2105 37.6655 76.7891C37.469 76.3653 37.3707 75.8646 37.3707 75.2869C37.3707 74.714 37.469 74.2169 37.6655 73.7955C37.862 73.3741 38.1354 73.0485 38.4858 72.8189C38.8362 72.5893 39.241 72.4744 39.7003 72.4744C40.0554 72.4744 40.3359 72.5336 40.5419 72.652C40.7502 72.768 40.9089 72.9006 41.0178 73.0497C41.129 73.1965 41.2154 73.3172 41.277 73.4119H41.348V70.7273H42.1861V78H41.3764V77.1619H41.277C41.2154 77.2614 41.1278 77.3868 41.0142 77.5384C40.9006 77.6875 40.7384 77.8213 40.5277 77.9396C40.317 78.0556 40.0365 78.1136 39.6861 78.1136ZM39.7997 77.3608C40.1359 77.3608 40.42 77.2732 40.652 77.098C40.884 76.9205 41.0604 76.6754 41.1811 76.3629C41.3018 76.0481 41.3622 75.6847 41.3622 75.2727C41.3622 74.8655 41.303 74.5092 41.1847 74.2038C41.0663 73.8961 40.8911 73.657 40.6591 73.4865C40.4271 73.3137 40.1406 73.2273 39.7997 73.2273C39.4446 73.2273 39.1487 73.3184 38.9119 73.5007C38.6776 73.6806 38.5012 73.9257 38.3828 74.2358C38.2668 74.5436 38.2088 74.8892 38.2088 75.2727C38.2088 75.661 38.268 76.0137 38.3864 76.331C38.5071 76.6458 38.6847 76.8968 38.919 77.0838C39.1558 77.2685 39.4493 77.3608 39.7997 77.3608ZM46.2663 72.5455V73.2557H43.326V72.5455H46.2663ZM44.2067 78V71.7926C44.2067 71.4801 44.2801 71.2197 44.4268 71.0114C44.5736 70.803 44.7642 70.6468 44.9986 70.5426C45.233 70.4384 45.4804 70.3864 45.7408 70.3864C45.9467 70.3864 46.1148 70.4029 46.245 70.4361C46.3752 70.4692 46.4723 70.5 46.5362 70.5284L46.2947 71.2528C46.2521 71.2386 46.1929 71.2209 46.1172 71.1996C46.0438 71.1783 45.9467 71.1676 45.826 71.1676C45.549 71.1676 45.349 71.2375 45.2259 71.3771C45.1051 71.5168 45.0447 71.7216 45.0447 71.9915V78H44.2067ZM48.8897 78.1278C48.5441 78.1278 48.2304 78.0627 47.9487 77.9325C47.667 77.8 47.4432 77.6094 47.2775 77.3608C47.1118 77.1098 47.0289 76.8068 47.0289 76.4517C47.0289 76.1392 47.0905 75.8859 47.2136 75.6918C47.3367 75.4953 47.5012 75.3414 47.7072 75.2301C47.9132 75.1188 48.1404 75.036 48.389 74.9815C48.64 74.9247 48.8921 74.8797 49.1454 74.8466C49.4769 74.804 49.7456 74.772 49.9515 74.7507C50.1599 74.727 50.3114 74.688 50.4061 74.6335C50.5031 74.5791 50.5517 74.4844 50.5517 74.3494V74.321C50.5517 73.9706 50.4558 73.6984 50.264 73.5043C50.0746 73.3101 49.787 73.2131 49.4011 73.2131C49.001 73.2131 48.6873 73.3007 48.46 73.4759C48.2328 73.651 48.073 73.8381 47.9806 74.0369L47.1852 73.7528C47.3272 73.4214 47.5166 73.1634 47.7534 72.9787C47.9925 72.7917 48.2529 72.6615 48.5346 72.5881C48.8187 72.5123 49.0981 72.4744 49.3727 72.4744C49.5479 72.4744 49.7491 72.4957 49.9764 72.5384C50.206 72.5786 50.4274 72.6626 50.6404 72.7905C50.8559 72.9183 51.0346 73.1113 51.1767 73.3693C51.3187 73.6274 51.3897 73.973 51.3897 74.4062V78H50.5517V77.2614H50.5091C50.4522 77.3797 50.3575 77.5064 50.225 77.6413C50.0924 77.7763 49.916 77.8911 49.6958 77.9858C49.4757 78.0805 49.207 78.1278 48.8897 78.1278ZM49.0176 77.375C49.349 77.375 49.6284 77.3099 49.8556 77.1797C50.0853 77.0495 50.2581 76.8814 50.3741 76.6754C50.4925 76.4695 50.5517 76.2528 50.5517 76.0256V75.2585C50.5162 75.3011 50.438 75.3402 50.3173 75.3757C50.1989 75.4089 50.0616 75.4384 49.9054 75.4645C49.7515 75.4882 49.6011 75.5095 49.4544 75.5284C49.31 75.545 49.1928 75.5592 49.1028 75.571C48.885 75.5994 48.6814 75.6456 48.492 75.7095C48.305 75.7711 48.1535 75.8646 48.0375 75.9901C47.9238 76.1132 47.867 76.2812 47.867 76.4943C47.867 76.7855 47.9747 77.0057 48.1902 77.1548C48.408 77.3016 48.6838 77.375 49.0176 77.375ZM54.979 78.1136C54.5245 78.1136 54.1232 77.9988 53.7752 77.7692C53.4272 77.5372 53.1549 77.2105 52.9585 76.7891C52.762 76.3653 52.6637 75.8646 52.6637 75.2869C52.6637 74.714 52.762 74.2169 52.9585 73.7955C53.1549 73.3741 53.4284 73.0485 53.7788 72.8189C54.1291 72.5893 54.534 72.4744 54.9933 72.4744C55.3484 72.4744 55.6289 72.5336 55.8349 72.652C56.0432 72.768 56.2018 72.9006 56.3107 73.0497C56.422 73.1965 56.5084 73.3172 56.57 73.4119H56.641V70.7273H57.479V78H56.6694V77.1619H56.57C56.5084 77.2614 56.4208 77.3868 56.3072 77.5384C56.1935 77.6875 56.0314 77.8213 55.8207 77.9396C55.61 78.0556 55.3294 78.1136 54.979 78.1136ZM55.0927 77.3608C55.4289 77.3608 55.7129 77.2732 55.945 77.098C56.177 76.9205 56.3533 76.6754 56.4741 76.3629C56.5948 76.0481 56.6552 75.6847 56.6552 75.2727C56.6552 74.8655 56.596 74.5092 56.4776 74.2038C56.3593 73.8961 56.1841 73.657 55.9521 73.4865C55.7201 73.3137 55.4336 73.2273 55.0927 73.2273C54.7376 73.2273 54.4416 73.3184 54.2049 73.5007C53.9705 73.6806 53.7942 73.9257 53.6758 74.2358C53.5598 74.5436 53.5018 74.8892 53.5018 75.2727C53.5018 75.661 53.561 76.0137 53.6793 76.331C53.8001 76.6458 53.9776 76.8968 54.212 77.0838C54.4487 77.2685 54.7423 77.3608 55.0927 77.3608ZM62.994 73.767L62.2411 73.9801C62.1938 73.8546 62.1239 73.7327 62.0316 73.6143C61.9416 73.4936 61.8185 73.3942 61.6623 73.3161C61.506 73.2379 61.306 73.1989 61.0621 73.1989C60.7283 73.1989 60.4502 73.2758 60.2276 73.4297C60.0075 73.5812 59.8974 73.7741 59.8974 74.0085C59.8974 74.2169 59.9731 74.3814 60.1246 74.5021C60.2762 74.6229 60.5129 74.7235 60.8349 74.804L61.6445 75.0028C62.1322 75.1212 62.4956 75.3023 62.7347 75.5462C62.9738 75.7876 63.0934 76.099 63.0934 76.4801C63.0934 76.7926 63.0034 77.072 62.8235 77.3182C62.646 77.5644 62.3974 77.7585 62.0778 77.9006C61.7582 78.0426 61.3865 78.1136 60.9627 78.1136C60.4064 78.1136 59.9459 77.9929 59.5813 77.7514C59.2167 77.5099 58.9859 77.1572 58.8888 76.6932L59.6843 76.4943C59.7601 76.7879 59.9033 77.008 60.114 77.1548C60.3271 77.3016 60.6052 77.375 60.9485 77.375C61.3391 77.375 61.6493 77.2921 61.8789 77.1264C62.1109 76.9583 62.2269 76.7571 62.2269 76.5227C62.2269 76.3333 62.1606 76.1747 62.0281 76.0469C61.8955 75.9167 61.6919 75.8196 61.4173 75.7557L60.5082 75.5426C60.0086 75.4242 59.6417 75.2408 59.4073 74.9922C59.1753 74.7412 59.0593 74.4276 59.0593 74.0511C59.0593 73.7434 59.1457 73.4711 59.3185 73.2344C59.4937 72.9976 59.7317 72.8118 60.0323 72.6768C60.3353 72.5419 60.6786 72.4744 61.0621 72.4744C61.6019 72.4744 62.0257 72.5928 62.3335 72.8295C62.6436 73.0663 62.8638 73.3788 62.994 73.767ZM64.3549 72.5455H65.193V78.3977C65.193 78.7339 65.135 79.0251 65.019 79.2713C64.9054 79.5175 64.7325 79.7081 64.5005 79.843C64.2709 79.978 63.9809 80.0455 63.6305 80.0455C63.6021 80.0455 63.5737 80.0455 63.5453 80.0455C63.5169 80.0455 63.4885 80.0455 63.46 80.0455V79.2642C63.4885 79.2642 63.5145 79.2642 63.5382 79.2642C63.5618 79.2642 63.5879 79.2642 63.6163 79.2642C63.872 79.2642 64.059 79.1884 64.1774 79.0369C64.2958 78.8878 64.3549 78.6747 64.3549 78.3977V72.5455ZM64.7669 71.6364C64.6035 71.6364 64.4627 71.5807 64.3443 71.4695C64.2283 71.3582 64.1703 71.2244 64.1703 71.0682C64.1703 70.9119 64.2283 70.7782 64.3443 70.6669C64.4627 70.5556 64.6035 70.5 64.7669 70.5C64.9302 70.5 65.0699 70.5556 65.1859 70.6669C65.3043 70.7782 65.3635 70.9119 65.3635 71.0682C65.3635 71.2244 65.3043 71.3582 65.1859 71.4695C65.0699 71.5807 64.9302 71.6364 64.7669 71.6364ZM67.9638 78L66.3018 72.5455H67.1825L68.3615 76.7216H68.4183L69.5831 72.5455H70.478L71.6286 76.7074H71.6854L72.8643 72.5455H73.745L72.0831 78H71.2592L70.0661 73.8097H69.9808L68.7876 78H67.9638ZM75.6911 74.7188V78H74.853V72.5455H75.6626V73.3977H75.7337C75.8615 73.1207 76.0556 72.8982 76.3161 72.7301C76.5765 72.5597 76.9126 72.4744 77.3246 72.4744C77.6939 72.4744 78.017 72.5502 78.294 72.7017C78.571 72.8509 78.7865 73.0781 78.9403 73.3835C79.0942 73.6866 79.1712 74.0701 79.1712 74.5341V78H78.3331V74.5909C78.3331 74.1624 78.2218 73.8286 77.9993 73.5895C77.7768 73.348 77.4714 73.2273 77.0831 73.2273C76.8156 73.2273 76.5765 73.2853 76.3658 73.4013C76.1574 73.5173 75.9929 73.6866 75.8722 73.9091C75.7514 74.1316 75.6911 74.4015 75.6911 74.7188ZM84.4242 80.0455V77.1619H84.3532C84.2916 77.2614 84.204 77.3868 84.0904 77.5384C83.9767 77.6875 83.8146 77.8213 83.6039 77.9396C83.3932 78.0556 83.1126 78.1136 82.7623 78.1136C82.3077 78.1136 81.9064 77.9988 81.5584 77.7692C81.2104 77.5372 80.9382 77.2105 80.7417 76.7891C80.5452 76.3653 80.4469 75.8646 80.4469 75.2869C80.4469 74.714 80.5452 74.2169 80.7417 73.7955C80.9382 73.3741 81.2116 73.0485 81.562 72.8189C81.9123 72.5893 82.3172 72.4744 82.7765 72.4744C83.1316 72.4744 83.4121 72.5336 83.6181 72.652C83.8264 72.768 83.985 72.9006 84.0939 73.0497C84.2052 73.1965 84.2916 73.3172 84.3532 73.4119H84.4526V72.5455H85.2623V80.0455H84.4242ZM82.8759 77.3608C83.2121 77.3608 83.4962 77.2732 83.7282 77.098C83.9602 76.9205 84.1365 76.6754 84.2573 76.3629C84.378 76.0481 84.4384 75.6847 84.4384 75.2727C84.4384 74.8655 84.3792 74.5092 84.2608 74.2038C84.1425 73.8961 83.9673 73.657 83.7353 73.4865C83.5033 73.3137 83.2168 73.2273 82.8759 73.2273C82.5208 73.2273 82.2248 73.3184 81.9881 73.5007C81.7537 73.6806 81.5774 73.9257 81.459 74.2358C81.343 74.5436 81.285 74.8892 81.285 75.2727C81.285 75.661 81.3442 76.0137 81.4625 76.331C81.5833 76.6458 81.7608 76.8968 81.9952 77.0838C82.2319 77.2685 82.5255 77.3608 82.8759 77.3608Z" fill="#111111" fill-opacity="0.4"/>
<path d="M16.0001 30.9999C17.1507 30.9999 18.0834 30.0672 18.0834 28.9166C18.0834 27.766 17.1507 26.8333 16.0001 26.8333C14.8495 26.8333 13.9167 27.766 13.9167 28.9166C13.9167 30.0672 14.8495 30.9999 16.0001 30.9999Z" fill="#3EBDC6" fill-opacity="0.4"/>
<path d="M16.0002 32.0417C13.9126 32.0417 12.2126 33.4417 12.2126 35.1667C12.2126 35.2834 12.3043 35.3751 12.421 35.3751H19.5793C19.696 35.3751 19.7877 35.2834 19.7877 35.1667C19.7877 33.4417 18.0877 32.0417 16.0002 32.0417Z" fill="#3EBDC6" fill-opacity="0.4"/>
<path d="M19.75 48.9167H12.25V47.6667C12.25 47.5562 12.2939 47.4502 12.372 47.372C12.4502 47.2939 12.5562 47.25 12.6667 47.25H19.3333C19.4438 47.25 19.5498 47.2939 19.628 47.372C19.7061 47.4502 19.75 47.5562 19.75 47.6667V48.9167ZM12.25 54.3333V49.75H19.75V54.3333C19.75 54.4438 19.7061 54.5498 19.628 54.628C19.5498 54.7061 19.4438 54.75 19.3333 54.75H12.6667C12.5562 54.75 12.4502 54.7061 12.372 54.628C12.2939 54.5498 12.25 54.4438 12.25 54.3333ZM13.5 51.8333H18.5V51H13.5V51.8333ZM13.5 53.5H16V52.6667H13.5V53.5Z" fill="#3EBDC6" fill-opacity="0.4"/>
<defs>
<filter id="filter0_d_45_778" x="0" y="0" width="194" height="94" filterUnits="userSpaceOnUse" color-interpolation-filters="sRGB">
<feFlood flood-opacity="0" result="BackgroundImageFix"/>
<feColorMatrix in="SourceAlpha" type="matrix" values="0 0 0 0 0 0 0 0 0 0 0 0 0 0 0 0 0 0 127 0" result="hardAlpha"/>
<feOffset dy="2"/>
<feGaussianBlur stdDeviation="1"/>
<feComposite in2="hardAlpha" operator="out"/>
<feColorMatrix type="matrix" values="0 0 0 0 0.0666667 0 0 0 0 0.0666667 0 0 0 0 0.0666667 0 0 0 0.1 0"/>
<feBlend mode="normal" in2="BackgroundImageFix" result="effect1_dropShadow_45_778"/>
<feBlend mode="normal" in="SourceGraphic" in2="effect1_dropShadow_45_778" result="shape"/>
</filter>
<filter id="filter1_d_45_778" x="0" y="0" width="194" height="94" filterUnits="userSpaceOnUse" color-interpolation-filters="sRGB">
<feFlood flood-opacity="0" result="BackgroundImageFix"/>
<feColorMatrix in="SourceAlpha" type="matrix" values="0 0 0 0 0 0 0 0 0 0 0 0 0 0 0 0 0 0 127 0" result="hardAlpha"/>
<feOffset dy="2"/>
<feGaussianBlur stdDeviation="1"/>
<feComposite in2="hardAlpha" operator="out"/>
<feColorMatrix type="matrix" values="0 0 0 0 0.0666667 0 0 0 0 0.0666667 0 0 0 0 0.0666667 0 0 0 0.1 0"/>
<feBlend mode="normal" in2="BackgroundImageFix" result="effect1_dropShadow_45_778"/>
<feBlend mode="normal" in="SourceGraphic" in2="effect1_dropShadow_45_778" result="shape"/>
</filter>
</defs>
</svg>
